<?xml version="1.0" encoding="utf-8"?>
<!-- Generator: Adobe Illustrator 27.5.0, SVG Export Plug-In . SVG Version: 6.00 Build 0)  -->
<svg version="1.1" xmlns="http://www.w3.org/2000/svg" xmlns:xlink="http://www.w3.org/1999/xlink" x="0px" y="0px"
	 viewBox="0 0 750 500" style="enable-background:new 0 0 750 500;" xml:space="preserve">
<g id="BACKGROUND">
	<rect id="XMLID_2_" y="0.259" style="fill:#FFFFFF;" width="750" height="500"/>
</g>
<g id="OBJECTS">
	<g>
		<path style="fill:none;stroke:#CBBDDB;stroke-width:2;stroke-linecap:round;stroke-linejoin:round;stroke-miterlimit:10;" d="
			M353.684,416.421c22.43,0.024,44.859,0.068,67.288,0.125"/>
		<path style="fill:none;stroke:#CBBDDB;stroke-width:2;stroke-linecap:round;stroke-linejoin:round;stroke-miterlimit:10;" d="
			M494.787,406.372c16.086,0.006,32.171,0.02,48.257,0.037"/>
		<path style="fill:none;stroke:#CBBDDB;stroke-width:2;stroke-linecap:round;stroke-linejoin:round;stroke-miterlimit:10;" d="
			M67.439,415.051c85.194-0.292,169.318-0.292,255.98-0.152"/>
		<path style="fill:none;stroke:#CBBDDB;stroke-width:2;stroke-linecap:round;stroke-linejoin:round;stroke-miterlimit:10;" d="
			M386.776,421.973c61.572-0.439,123.572-0.439,185.689-0.381"/>
		<path style="fill:none;stroke:#CBBDDB;stroke-width:2;stroke-linecap:round;stroke-linejoin:round;stroke-miterlimit:10;" d="
			M229.404,430.916c48.256-0.136,97.699-0.136,146.204,0.162"/>
		<path style="fill:none;stroke:#CBBDDB;stroke-width:2;stroke-linecap:round;stroke-linejoin:round;stroke-miterlimit:10;" d="
			M137.721,422.479c18.82-0.029,37.64-0.053,56.46-0.073"/>
		<path style="fill:none;stroke:#CBBDDB;stroke-width:2;stroke-linecap:round;stroke-linejoin:round;stroke-miterlimit:10;" d="
			M337.145,437.783c7.048-0.037,14.096-0.069,21.143-0.096"/>
		<path style="fill:none;stroke:#CBBDDB;stroke-width:2;stroke-linecap:round;stroke-linejoin:round;stroke-miterlimit:10;" d="
			M582.115,421.6c22.43,0.024,74.859,0.068,97.288,0.125"/>
	</g>
	<path style="fill:none;stroke:#CBBDDB;stroke-width:2;stroke-linecap:round;stroke-linejoin:round;stroke-miterlimit:10;" d="
		M297.001,401.983c41.347-0.45,82.347-0.45,123.164-0.57"/>
	<path style="fill:#F2E9DF;" d="M490.628,362.91c26.37,8.118,58.16,13.667,85.836,11.807c27.753-1.866,52.269-8.269,71.904-29.721
		c23.001-25.129,25.355-57.072,23.809-89.422c-0.75-15.698-3.186-39.839-13.06-52.804c-18.734-24.595-56.483-38.828-85.724-44.015
		c-28.745-5.1-61.103-1.133-85.591-19.053c-11.443-8.374-20.296-19.711-30-30.05c-18.567-19.784-41.265-36.528-67.41-43.779
		c-20.883-5.791-44.223-4.976-63.957,4.413c-21.401,10.183-34.31,30.364-51.989,45.324c-12.477,10.558-27.319,18.306-43.115,22.506
		c-14.415,3.833-29.562,4.749-43.665,9.607c-35.229,12.134-64.508,39.82-74.157,76.35c-9.631,36.464,0.166,74.871,28.242,100.207
		c7.605,6.863,16.148,12.606,24.845,18.019c27.786,17.292,60.498,31.88,92.405,24.6c9.565-2.182,18.573-6.251,27.672-9.92
		c35.211-14.198,74.137-23.922,112.229-25.028c14.405-0.418,23.196,6.064,36.134,11.031
		C453.326,350.004,471.901,357.145,490.628,362.91z"/>
	<g>
		
			<polyline style="fill:none;stroke:#000000;stroke-width:2;stroke-linecap:round;stroke-linejoin:round;stroke-miterlimit:10;" points="
			294.062,401.92 317.169,281.977 349.126,280.527 372.233,400.92 		"/>
		
			<polyline style="fill:none;stroke:#000000;stroke-width:2;stroke-linecap:round;stroke-linejoin:round;stroke-miterlimit:10;" points="
			281.034,401.92 304.141,284.876 336.098,283.427 359.205,400.92 		"/>
		<path style="fill:#B1C785;" d="M322.428,315.865c-8.587-1.649-17.054-3.92-25.309-6.803
			c-19.208-6.707-34.682-26.878-40.803-45.724c-6.43-19.799-8.771-44.882-5.349-65.362c2.205-13.193,9.755-26.63,22.431-30.897
			c9.121-3.07,19.156-0.893,28.24,2.283c12.246,4.282,19.189,10.294,24.537,21.951c5.732,12.494,9.943,25.718,17.114,37.52
			c10.083,16.595,25.855,29.66,44.037,36.479c11.948,4.481,35.28,7.676,30.646,25.288c-5.042,19.165-25.245,25.744-43.024,27.577
			C357.454,319.981,339.699,319.182,322.428,315.865z"/>
		<g>
			<path style="fill:#E86F7B;" d="M512.863,382.82c1.412-1.618,1.244-4.095-0.389-5.491c-10.365-8.859-20.401-19.003-29.51-28.986
				c-2.29-2.51-4.815-5.212-8.171-5.739c-2.283-0.358-4.636,0.377-6.668,1.401c-3.441,1.734-6.251,4.59-7.741,8.143
				c-5.935,14.156,12.24,25.974,21.783,32.405c4.742,3.196,8.955,7.114,13.133,11.052c1.54,1.452,3.959,1.399,5.439-0.113
				C504.867,391.277,508.99,387.259,512.863,382.82z"/>
			<path style="fill:#945E38;" d="M547.371,375.362c0.75-1.193,1.43-2.45,2.076-3.784c1.035-2.135,1.263-5.073-0.592-6.553
				c-1.766-1.409-4.353-0.725-6.453,0.108c-7.889,3.129-15.268,7.456-23.21,10.447c-1.248,0.47-2.525,0.922-3.84,1.163
				c-0.831,0.152-2.641-0.146-3.285,0.137c-1.799,0.79-3.915,4.716-5.219,6.248c-3.805,4.469-7.749,8.814-11.795,13.064
				c0.302,0.28,0.602,0.563,0.905,0.84c1.168,1.071,2.353,2.165,3.577,3.178c4.342,3.593,8.997,9.721,14.116,5.84
				c0.933-0.707,3.861-3.414,4.773-4.147c4.969-3.992,9.948-8.59,14.766-12.853c3.195-2.827,6.63-5.379,9.752-8.29
				C544.716,379.107,546.138,377.323,547.371,375.362z"/>
			<path style="fill:#222221;" d="M479.142,382.51c1.745-3.071,3.418-6.183,4.988-9.347c2.615-5.274,4.972-10.675,7.025-16.191
				c-2.783-2.825-5.518-5.698-8.191-8.628c-2.29-2.509-4.815-5.212-8.171-5.738c-1.934-0.303-3.919,0.178-5.716,0.954
				c-4.824,2.085-8.672,6.521-9.628,11.689C457.338,366.672,470.099,376.334,479.142,382.51z"/>
		</g>
		<path style="fill:#170303;" d="M391.066,278.962l-2.542-1.869c8.019-10.904,11.119-23.104,8.727-34.352
			c-2.59-12.184-11.782-22.894-24.589-28.649c-20.096-9.032-45.351-5.402-69.65-0.134l-0.669-3.083
			c24.826-5.382,50.684-9.065,71.611,0.339c13.721,6.166,23.584,17.707,26.382,30.872
			C402.919,254.226,399.626,267.322,391.066,278.962z"/>
		<path style="fill:#E86F7B;" d="M415.005,241.623c-0.121-3.071-0.717-6.305-2.551-8.934c-2.951-4.231-8.678-5.893-13.194-4.6
			c-4.516,1.293-7.844,5.054-9.702,9.398c-1.052,2.46-1.688,5.103-2.103,7.818c-0.318,2.08-0.507,4.202-0.655,6.317
			c-0.499,7.115-1.085,14.728,0.028,21.971c0.082,0.533,0.191,1.039,0.317,1.531c0.72,0.687,1.394,1.422,2.15,2.065
			c0.459,0.326,0.919,0.649,1.386,0.964c1.951,1.062,4.121,1.387,6.218,2.033c2.159,0.665,4.25,1.565,6.525,1.75
			c0.333,0.027,0.664,0.052,0.992,0.081c0.142-0.314,0.299-0.711,0.487-1.219c1.859-5.024,4.998-17.949,6.858-22.973
			c0.951-2.571,1.905-5.15,2.508-7.861C414.868,247.27,415.116,244.459,415.005,241.623z"/>
		<path d="M387.833,255.695c2.087,1.262,4.708,1.249,7.035,1.724c1.403,0.286,2.785,0.708,4.175,1.053
			c1.42,0.353,2.84,0.71,4.234,1.157c2.408,0.771,4.681,1.878,6.947,3.003c0.562-1.913,1.087-3.594,1.536-4.807
			c0.951-2.571,1.905-5.15,2.508-7.861c0.599-2.694,0.848-5.505,0.736-8.341c-0.121-3.071-0.717-6.305-2.551-8.934
			c-2.951-4.231-8.678-5.893-13.194-4.6c-4.516,1.293-7.844,5.054-9.702,9.398c-1.052,2.46-1.688,5.103-2.103,7.818
			c-0.318,2.08-0.507,4.202-0.655,6.317c-0.065,0.933-0.132,1.876-0.196,2.824C386.876,254.927,387.269,255.355,387.833,255.695z"/>
		<path style="fill:#E6B93E;" d="M457.433,391.375c5.948-6.169,11.691-12.538,17.297-19.018c6.894-7.969,13.59-16.106,20.251-24.271
			c-0.248-0.454-0.515-0.898-0.781-1.331c-12.248-19.886-28.821-37.07-48.158-50.154c-20.038-13.558-41.933-26.798-65.919-31.896
			c-6.787-1.443-13.293-1.186-19.711-3.648c-7.413-2.845-14.625-6.325-21.986-9.32c-8.972-3.651-17.364-8.622-26.37-12.188
			c-7.664-3.035-17.413-2.788-23.887,2.804c-8.653,7.475-7.127,18.449-3.079,28.078c6.386,15.187,16.512,21.378,31.649,26.25
			c28.739,9.25,59.548,15.651,81.778,37.194C418.232,352.982,436.137,374.146,457.433,391.375z"/>
		<path d="M355.109,287.36c0.082,5.012-0.714,10.036-0.908,15.047c-0.04,1.046-0.034,2.131,0.389,3.089
			c0.774,1.751,2.653,2.695,3.385,4.479c-1.687,0.01-11.149-3.109-12.032-3.842c-3.078-2.553-0.802-6.544-1.572-10.467
			c-0.69-3.518-0.969-7.102-1.245-10.677c-0.256-3.301-0.511-6.602-0.767-9.903c-0.117-1.507-0.652-6.636,1.229-7.452
			c1.348-0.585,4.107,3.868,4.91,4.946c2.76,3.703,6.371,8.906,6.577,13.7C355.093,286.64,355.103,287,355.109,287.36z"/>
		<path style="fill:#697AD1;" d="M355.188,152.769c-6.135-9.194-26.106-7.752-35.756-8.606c-2.606-0.23-7.096,0.934-9.675,1.376
			c-3.181,0.544-4.251,0.686-7.018,2.346c-21.612,12.965-33.555,32.974-33.108,58.449c0.304,17.308,5.598,33.968,11.167,50.192
			c0.312,0.91,0.56,1.673,0.795,2.327c0.751-0.209,1.499-0.42,2.239-0.629c6.723-1.894,13.496-4.03,19.963-6.679
			c6.257-2.563,12.188-5.893,17.767-9.704c5.704-3.897,10.938-8.394,16.312-12.722c4.396-3.54,9.596-3.468,13.633-7.418
			c-0.961-1.813-2.663-7.288-3.3-9.234c-1.232-3.763-1.416-7.782-1.42-11.742c-0.005-4.793-0.501-10.77,1.089-15.36
			c0.307-0.886,0.853-1.666,1.393-2.433c3.375-4.798,6.477-8.291,7.063-14.215C356.807,163.906,357.934,156.885,355.188,152.769z"/>
		<path d="M304.613,215.178c1.592-6.712,2.734-13.53,3.415-20.394c0.162-1.637,0.309-3.316,1.004-4.807
			c-0.077,0.165,1.65,3.609,1.774,4.172c0.322,1.463,0.244,2.744,0.152,4.189c-0.211,3.307-1.697,6.925-1.095,10.218
			c0.411,2.247,1.941,4.276,1.831,6.558c-0.161,3.348-3.661,5.507-4.905,8.62c-1.111,2.778-0.166,6.733-2.335,9.053
			c-0.976,1.045-2.679,1.686-3.659,0.267c-1.044-1.514,0.538-5.769,0.939-7.546C302.517,222.044,303.789,218.651,304.613,215.178z"
			/>
		<path style="fill:#1F5DAD;" d="M354.78,226.533c-0.828-2.477-2.245-4.604-3.474-6.873c-0.352-0.649-0.688-1.309-0.99-1.993
			c-0.106-0.238-0.219-0.484-0.362-0.703c-0.491,0.327-0.997,0.635-1.509,0.93c-2.458,1.419-4.895,2.878-7.369,4.268
			c-4.646,2.612-9.353,5.155-14.073,7.633c-4.519,2.373-9.11,4.817-13.788,6.86c-2.239,0.978-4.568,1.708-6.904,2.41
			c-2.514,0.755-4.995,1.62-7.528,2.312c-0.807,0.221-1.621,0.434-2.433,0.65c-0.215,0.071-0.429,0.147-0.644,0.217
			c-2.52,0.824-5.492,2.083-5.871,4.708c-0.148,1.025,0.16,2.056,0.483,3.043c1.249,3.818,2.699,11.27,7.095,11.444
			c1.914,0.076,4.827-0.821,6.916-0.966c2.883-0.199,5.756-0.544,8.585-1.138c6.314-1.327,12.595-3.25,18.678-5.387
			C342.814,250.006,359.79,241.524,354.78,226.533z"/>
		<path style="fill:#E6B93E;" d="M402.872,183.665c-0.419-0.232-0.834-0.46-1.246-0.671c-2.309-1.183-4.749-2.397-7.342-2.303
			c-2.517,0.09-4.808,1.401-6.972,2.691c-10.876,6.487-21.556,13.406-31.108,21.72c-9.552,8.315-17.985,18.091-23.68,29.403
			c-1.677,3.331-3.129,6.85-3.486,10.562c-0.268,2.79,0.092,5.598,0.451,8.378c0.753,5.832,0.515,11.129,6.696,13.633
			c2.624,1.064,5.482,1.369,8.257,1.932c5.412,1.097,11.3,4.414,16.356,1.015c11.554-7.767,22.457-19.753,26.57-31.517
			c5.398-15.438,18.302-27.242,25.083-42.125c1.212-2.661,3.098-8.331-0.441-10.118c-1.219-0.615-2.87-0.152-4.179-0.421
			C406.095,185.488,404.458,184.544,402.872,183.665z"/>
		<g>
			<path style="fill:#E6B93E;" d="M423.503,194.995c-0.133-3.941-0.185-8.756-1.892-12.382c-1.69-3.589-6.306-6.462-10.009-7.382
				c-4.465-1.109-9.564,0.098-12.686,3.475c-1.662,1.798-2.699,4.066-3.836,6.234c-3.612,7.224-7.915,14.035-11.551,21.269
				c-0.703,1.397-1.408,2.804-1.86,4.301c-0.504,1.673,4.009,5.079,3.835,6.818c-0.598,5.997-2.29,13.004-2.888,19.001
				l-3.876,14.213c4.916-0.193,7.845,2.528,12.442,3.951c3.107,0.962,6.38,1.229,9.622,1.49c1.886,0.152,21.734,2.277,21.527,0.324
				c-1.311-12.352,0.693-24.783,1.28-37.191C423.989,211.083,423.775,203.033,423.503,194.995z"/>
		</g>
		<path style="fill:#697AD1;" d="M337.577,183.711c0.205,2.829,3.089,5.167,5.899,4.782c1.46-0.2,2.755-1.001,4.092-1.622
			c3.54-1.645,7.637-2.064,11.437-1.172c7.254,1.704,13.457,0.082,20.493-0.929c8.03-1.153,15.875-2.972,23.483-5.822
			c3.734-1.399,7.455-3.057,10.625-5.436c3.744-2.809,6.818-6.015,8.224-10.637c0.904-2.973,0.695-6.465-1.3-8.848
			c-1.333-1.593-0.868-3.02-2.839-3.676c-5.991-1.995-14.874-1.388-21.189-1.38c-18.761,0.025-37.524-1.008-56.17-3.091
			c-4.955-0.553-3.922,6.842-3.141,10.087c0.85,3.535,2.973,6.944,3.134,10.544c0.146,3.264-0.241,6.533-1.094,9.684
			C338.619,178.462,337.407,181.364,337.577,183.711z"/>
		<path style="fill:none;stroke:#000000;stroke-linecap:round;stroke-linejoin:round;stroke-miterlimit:10;" d="M360.687,179.327
			c-3.958-1.923-7.439-4.818-10.052-8.358"/>
		<path style="fill:#697AD1;" d="M284.155,158.107c-14.234,16.27-23.146,81.183-14.077,82.127c7.358,0.766,22.93-2.657,28.164-8.979
			c2.338-2.825,3.09-6.6,3.763-10.204c0.926-4.956,1.853-9.912,2.779-14.868c3.785-20.25,8.492-41.054,4.209-61.204
			C295.577,146.772,290.113,151.297,284.155,158.107z"/>
		<path style="fill:#B1C785;" d="M324.343,247.442c13.713,6.452,23.567,18.516,26.36,32.271c1.371,6.75,1.373,13.721-0.421,20.393
			c-1.36,5.058-4.457,15.064-10.329,16.467c-2.224,0.531-4.553,0.16-6.809-0.213c-2.488-0.411-4.977-0.822-7.465-1.234
			c-3.951-0.653-8.272-1.376-11.356-4.136c-2.911-2.604-4.869-3.852-8.686-5.36c-11.581-4.575-23.849-9.682-30.889-19.952
			c-3.255-4.749-5.152-10.302-8.203-15.185c-2.454-3.927-5.641-7.395-7.739-11.524c-1.343-2.642-2.229-5.72-1.974-8.706
			c0.36-4.219,1.75-4.501,5.533-5.251c7.099-1.406,14.256-2.577,21.471-3.184C297.507,240.679,311.756,241.521,324.343,247.442z"/>
		<g>
			<defs>
				<path id="SVGID_1_" d="M322.428,315.865c-8.587-1.649-17.054-3.92-25.309-6.803c-19.208-6.707-34.682-26.878-40.803-45.724
					c-6.43-19.799-8.771-44.882-5.349-65.362c2.205-13.193,9.755-26.63,22.431-30.897c9.121-3.07,19.156-0.893,28.24,2.283
					c12.246,4.282,19.189,10.294,24.537,21.951c5.732,12.494,9.943,25.718,17.114,37.52c10.083,16.595,13.921,30.07,32.102,36.889
					c11.948,4.481,47.215,7.266,42.581,24.878c-5.042,19.165-25.245,25.744-43.024,27.577
					C357.454,319.981,339.699,319.182,322.428,315.865z"/>
			</defs>
			<clipPath id="SVGID_00000148661883942397396740000004519750845592871056_">
				<use xlink:href="#SVGID_1_"  style="overflow:visible;"/>
			</clipPath>
		</g>
		<path style="fill:none;stroke:#000000;stroke-linecap:round;stroke-linejoin:round;stroke-miterlimit:10;" d="M380.282,251.274
			c-0.719-5.385,6.439-30.025,6.577-35.449c0.138-5.424-1.433-7.784,1.184-12.634"/>
		<path style="fill:none;stroke:#000000;stroke-linecap:round;stroke-linejoin:round;stroke-miterlimit:10;" d="M308.993,184.613
			c-1.341,12.614-3.313,25.162-5.907,37.579c-0.588,2.813-1.223,5.662-2.59,8.19c-1.189,2.198-2.919,4.1-4.995,5.492"/>
		<path style="fill:none;stroke:#000000;stroke-linecap:round;stroke-linejoin:round;stroke-miterlimit:10;" d="M349.318,305.272
			c-1.554,4.532-3.755,6.216-7.511,8.935"/>
		<g>
			<path style="fill:#FFFFFF;" d="M321.3,193.618c-0.436-0.758-0.807-1.563-1.051-2.405c-0.201-0.694-0.525-1.574-0.477-2.297
				c0.013-0.193,0.085-0.425,0.274-0.461c-0.219-0.276-0.257-0.683-0.092-0.994c0.165-0.311,0.523-0.508,0.874-0.481
				c-0.101-0.324-0.039-0.695,0.161-0.969c0.405-0.553,1.437-0.69,2.061-0.801c2.805-0.5,5.661-0.625,8.507-0.749
				c5.788-0.252,11.578-0.503,17.372-0.492c0.352,0.001,0.718-0.001,1.033-0.157c0.221-0.109,0.399-0.286,0.573-0.46
				c1.956-1.95,3.911-3.9,5.867-5.85c2.54-2.532,5.08-5.065,7.62-7.597c0.635-0.633,1.27-1.266,1.905-1.899
				c0.517-0.515,1.007-0.845,1.582-1.257c1.19-0.852,2.224-1.793,3.731-2.023c0.269-0.041,0.549-0.061,0.845-0.057
				c0.316,0.004,0.717,0.112,0.749,0.426c0.359-0.088,0.73-0.177,1.095-0.119s0.727,0.301,0.808,0.662
				c0.014,0.062,0.023,0.133,0.073,0.173c0.05,0.04,0.121,0.034,0.184,0.024c0.368-0.059,0.737-0.183,1.105-0.124
				c0.368,0.059,0.73,0.398,0.641,0.759c0.437-0.243,1.011-0.064,1.37,0.285c0.972,0.946,1.128,2.706,1.427,3.954
				c0.362,1.507,0.679,3.027,1.054,4.531c0.229,0.918,0.46,1.848,0.458,2.795c-0.002,1.062-0.297,2.102-0.667,3.097
				c-2.377,6.404-7.753,11.217-13.381,15.089c-8.024,5.52-17.028,9.711-26.558,11.724c-2.019,0.427-4.118,0.755-6.137,0.322
				c-1.624-0.348-3.272-1.089-4.787-1.76c-1.486-0.658-1.799-1.718-2.629-3.161C325.027,200.104,323.166,196.859,321.3,193.618z"/>
			<path style="fill:#853894;" d="M351.886,185.14c0,0,23.407,47.211,24.022,48.262l27.108-20.374l-23.163-46.299
				c-0.324-0.648-1.152-0.852-1.74-0.429L351.886,185.14z"/>
			<path style="fill:#853894;" d="M350.871,185.92c0,0,23.553,46.906,24.173,48l-33.496,3.799l-22.614-46.227
				c-0.423-0.866,0.136-1.89,1.094-2.001L350.871,185.92z"/>
			<path d="M378.216,232.728c0.057-0.299-0.137-0.544-0.248-0.825c-0.156-0.395-0.33-0.783-0.512-1.165
				c-0.353-0.739-0.74-1.461-1.102-2.195c-1.234-2.507-2.543-4.976-3.848-7.447c-2.472-4.682-4.97-9.35-7.433-14.037
				c-2.083-3.964-4.057-7.985-6.031-12.005c-0.999-2.033-1.998-4.066-3.012-6.092c-0.495-0.989-0.994-1.977-1.498-2.962
				c-0.173-0.339-0.361-0.667-0.569-0.986c-0.232-0.355-0.517-0.904-0.987-0.965c-0.186-0.024-0.372,0.037-0.549,0.098
				c-0.848,0.292-1.694,0.603-2.491,1.019c-0.404,0.211-0.786,0.452-1.156,0.718c-0.168,0.121-0.249,0.155-0.253,0.372
				c-0.004,0.234,0.1,0.474,0.194,0.683c0.658,1.474,1.397,2.922,2.116,4.368c0.728,1.462,1.497,2.904,2.245,4.356
				c0.344,0.667,0.684,1.337,1.01,2.013c4.861,10.063,9.907,19.424,14.951,29.398c0.064,0.126,0.128,0.253,0.191,0.38
				c0.793,1.583,1.551,3.184,2.307,4.786c0.189,0.4,0.378,0.801,0.567,1.201c0.149,0.314,0.264,0.693,0.442,0.988
				c0.323,0.534,1.456,0.353,1.969,0.284c0.694-0.093,1.387-0.227,2.042-0.475c0.404-0.152,0.797-0.35,1.113-0.643
				c0.237-0.22,0.445-0.508,0.53-0.823C378.21,232.757,378.213,232.742,378.216,232.728z"/>
		</g>
		<path style="fill:none;stroke:#000000;stroke-linecap:round;stroke-linejoin:round;stroke-miterlimit:10;" d="M257.236,196.998
			c-1.775,6.955-2.517,14.173-2.195,21.345"/>
		<path style="fill:none;stroke:#000000;stroke-linecap:round;stroke-linejoin:round;stroke-miterlimit:10;" d="M260.899,236.704
			c-1.777,0.395-3.553,0.79-5.33,1.184"/>
		<path style="fill:none;stroke:#000000;stroke-linecap:round;stroke-linejoin:round;stroke-miterlimit:10;" d="M339.125,281.083
			c3.251,5.022,4.487,11.309,3.378,17.187"/>
		<path style="fill:none;stroke:#000000;stroke-linecap:round;stroke-linejoin:round;stroke-miterlimit:10;" d="M273.952,282.287
			c4.569,6.768,10.69,12.48,17.758,16.57"/>
		<path style="fill:#E86F7B;" d="M354.192,216.557c-3.633,2.176-7.403,4.136-11.349,5.671c-1.638,0.637-3.347,1.133-5.12,0.926
			c-1.657-0.193-2.663-0.716-3.921-1.757c-0.979,1.482-1.959,2.963-2.938,4.445c-1.039,1.572-2.496,3.217-4.445,3.572
			c-6.545,1.193-13.857-1.775-20.25-2.824c-10.218-1.675-20.642-1.679-30.927-1.162c-1.747,0.088-3.526,0.182-5.166,0.789
			c-1.64,0.607-3.151,1.82-3.672,3.49c-0.291,0.931-0.258,1.93-0.193,2.903c0.271,4.071,1.108,8.248,3.473,11.573
			c3.835,5.392,10.935,7.483,17.55,7.588c7.704,0.122,15.917-0.943,23.546-1.966c8.192-1.099,16.373-2.388,24.397-4.397
			c4.581-1.147,9.108-2.528,13.512-4.239c5.937-2.307,12.118-5.118,15.624-10.762c0.372-0.599,0.679-1.449,0.173-1.94
			c-0.491-0.477-1.31-0.179-1.891,0.184c-2.476,1.551-4.448,3.769-6.954,5.316c-0.542,0.335-1.255,0.645-1.779,0.281
			c0.456-0.76,1.278-1.204,2.027-1.675c2.294-1.443,4.311-3.542,6.272-5.4c1.028-0.974,2.041-2.048,2.476-3.396
			c0.131-0.406,0.186-0.902-0.107-1.211c-0.344-0.361-0.942-0.246-1.402-0.054c-1.817,0.759-3.411,2.391-4.974,3.573
			c-1.875,1.417-3.829,2.727-5.839,3.945c-0.546,0.331-1.142,0.667-1.778,0.619c0.103-0.723,0.782-1.198,1.393-1.597
			c3.416-2.228,6.582-4.839,9.42-7.767c0.521-0.537,1.048-1.117,1.237-1.84c0.189-0.724-0.087-1.625-0.785-1.891
			c-0.589-0.225-1.241,0.056-1.792,0.362c-4.2,2.332-7.277,6.387-11.582,8.52c-0.301,0.149-1.044,0.443-1.352,0.155
			c-0.467-0.436,0.315-0.727,0.682-1c0.974-0.725,1.937-1.464,2.889-2.219c1.903-1.509,3.758-3.078,5.563-4.703
			c0.419-0.377,0.848-0.775,1.061-1.297c0.214-0.522,0.146-1.204-0.307-1.54c-0.617-0.459-1.481-0.056-2.138,0.344
			C354.616,216.302,354.405,216.43,354.192,216.557z"/>
		<path style="fill:none;stroke:#000000;stroke-linecap:round;stroke-linejoin:round;stroke-miterlimit:10;" d="M369.398,263.168
			c-4.879-0.9-9.638-2.358-14.496-3.359c-3.015-0.621-6.063-1.065-9.109-1.508"/>
		<path style="fill:#E86F7B;" d="M427.539,157.781c-0.601-1.24-1.36-2.403-2.26-3.447c-2.703-3.137-6.885-5.193-10.983-4.598
			c-4.746,0.689-8.439,4.731-10.192,9.194c-1.753,4.464-1.943,9.359-2.282,14.143c-0.234,3.301-0.553,6.645-1.539,9.819
			c-0.586,1.887-1.315,3.235-3.18,3.993c-1.038,0.422-2.103,0.779-3.186,1.067c-0.725,0.193-1.621,0.701-2.438,0.798
			c-0.274,0.033-0.448,0.306-0.327,0.553c0.351,0.719,0.536,1.384,0.703,2.241c0.413,2.124-0.499,3.041-2.085,4.174
			c-3.362,2.399-6.984,4.407-10.786,5.977c-0.66,0.273-1.353,0.552-1.808,1.119c-0.455,0.567-0.573,1.52-0.052,2.076
			c0.54,0.577,1.421,0.448,2.126,0.22c3.804-1.234,7.528-2.871,11.268-4.294c0.236-0.09,0.506-0.179,0.734-0.07
			c-0.361,0.699-0.6,0.903-1.294,1.317c-3.093,1.842-6.359,3.379-9.744,4.587c-0.882,0.315-7.186,2.159-4.208,4.119
			c0.584,0.385,1.31,0.343,1.971,0.246c2.559-0.374,4.971-1.369,7.262-2.537c2.308-1.176,4.575-2.242,6.974-3.232
			c-1.325,1.449-2.644,2.405-4.417,3.279c-1.911,0.941-3.925,1.676-5.765,2.75c-1.073,0.626-2.579,2.669-0.378,2.917
			c0.574,0.064,1.145-0.11,1.692-0.292c4.395-1.46,8.586-3.532,12.415-6.136c-1.632,2.052-3.906,3.82-6.17,5.135
			c-0.933,0.542-4.625,2.677-2.122,3.701c0.556,0.228,1.189,0.154,1.769-0.001c1.344-0.361,2.539-1.129,3.684-1.919
			c5.014-3.456,9.397-7.644,14.048-11.555c3.77-3.17,6.786-7.425,9.721-11.38c3.457-4.658,6.518-9.602,9.028-14.833
			c1.901-3.961,3.572-8.217,3.435-12.618C429.085,162.041,428.522,159.809,427.539,157.781z"/>
		<path style="fill:none;stroke:#000000;stroke-linecap:round;stroke-linejoin:round;stroke-miterlimit:10;" d="M460.983,350.949
			c3.794-0.665,7.494-1.866,10.954-3.558"/>
		<path style="fill:none;stroke:#000000;stroke-linecap:round;stroke-linejoin:round;stroke-miterlimit:10;" d="M394.952,282.549
			c1.62,0.103,3.265-0.207,4.737-0.892"/>
		<path style="fill:none;stroke:#000000;stroke-linecap:round;stroke-linejoin:round;stroke-miterlimit:10;" d="M416.891,222.915
			c-2.62,6.909-5.481,13.726-8.576,20.436"/>
		<path style="fill:none;stroke:#000000;stroke-linecap:round;stroke-linejoin:round;stroke-miterlimit:10;" d="M413.31,244.646
			c-2.363,1.588-4.726,3.176-7.089,4.764"/>
		<path style="fill:none;stroke:#000000;stroke-linecap:round;stroke-linejoin:round;stroke-miterlimit:10;" d="M294.872,155.226
			c-2.788,2.229-5.286,4.822-7.41,7.692"/>
		<g>
			<g id="XMLID_30_">
				<g id="XMLID_33_">
					<path id="XMLID_40_" style="fill:#E86F7B;" d="M320.17,128.352c-0.095,1.474,3.041,4.792,4,5.839
						c1.521,1.661,3.283,2.934,5.396,3.73c5.508,2.074,11.248,2.183,15.468-2.397c2.004-2.174,3.346-4.871,4.464-7.608
						c1.702-4.17,3.99-15.631,2.803-19.976c-1.077-3.943-5.269-0.426-9.155-1.695c-3.381-1.104-5.956-2.099-9.544-1.418
						c-3.189,0.606-6.248,2.243-8.216,4.869c-0.531,0.708-1.01,1.424-1.448,2.141c-1.028,2.275-1.972,4.592-2.642,7
						c-0.559,2.009-0.727,4.039-1.015,6.069C320.276,126.057,320.244,127.207,320.17,128.352z"/>
				</g>
			</g>
			<g id="XMLID_26_">
				<g id="XMLID_27_">
					<path style="fill:#E86F7B;" d="M318.303,154.714c2.909,1.971,9.513,5.434,12.889,3.751c2.761-1.377,5.348-2.901,5.369-6.034
						c0.026-3.887,0.443-7.071,1.977-10.734c0.329-0.786,3.231-5.635,2.915-6.171c-0.09-0.152-0.2-0.294-0.339-0.423
						c-0.723-0.671-1.827-0.635-2.814-0.631c-3.689,0.015-7.159-1.094-10.189-3.184c-1.441-0.994-2.745-2.173-3.989-3.402
						c-0.712-0.703-2.037-3.173-3.109-3.244c-0.102-0.007-0.179,0.047-0.262,0.085c-1.179,5.064-1.209,9.782-4.177,14.349
						c-1.123,1.727-4.034,5.428-7.232,6.083C311.566,148.961,314.625,152.222,318.303,154.714z"/>
				</g>
			</g>
			<path d="M357.241,100.828c-0.163-0.138-0.338-0.262-0.526-0.37c-1.673-0.956-3.829-0.4-5.639-1.06
				c-1.759-0.641-2.898-2.299-4.038-3.784c-1.14-1.485-2.605-2.992-4.475-3.083c-1.975-0.096-3.703,1.433-5.675,1.576
				c-1.402,0.102-2.747-0.506-4.131-0.757c-2.523-0.457-5.243,0.354-7.103,2.118c-0.885,0.839-1.572,1.865-2.429,2.732
				c-1.213,1.227-2.728,2.102-4.117,3.125c-1.389,1.023-2.71,2.278-3.262,3.912c-0.604,1.788-0.203,3.75-0.441,5.623
				c-0.191,1.502-0.793,2.935-0.913,4.445c-0.164,2.055,0.574,4.021,1.197,5.941c0.636,1.961,0.737,3.938,1.808,5.705
				c0.836,1.378,2.232,2.72,3.824,2.469c1.091-0.173,1.939-1.071,2.441-2.055c0.895-1.752,0.938-3.795,1.291-5.731
				c0.215-1.178,0.57-2.743,1.549-3.528c0.88-0.705,1.978-1.367,2.942-1.972c2.411-1.513,5.141-2.521,7.96-2.919
				c2.836-0.4,5.717-0.196,8.581-0.254c2.863-0.058,5.81-0.408,8.311-1.803c2.501-1.395,4.475-4.032,4.376-6.894
				C358.728,102.975,358.21,101.651,357.241,100.828z"/>
			<g id="XMLID_20_">
				<g id="XMLID_21_">
					<path id="XMLID_22_" style="fill:#E86F7B;" d="M331.076,115.802c-0.098-0.969-0.486-1.863-1.076-2.53
						c-0.704-1.189-2.331-1.721-3.654-1.621c-1.857,0.14-3.553,1.58-4.148,3.445c-1.312,4.106,2.9,7.662,6.454,5.631
						C330.327,119.77,331.274,117.761,331.076,115.802z"/>
				</g>
			</g>
			<path style="fill:none;stroke:#000000;stroke-linecap:round;stroke-linejoin:round;stroke-miterlimit:10;" d="M325.837,114.282
				c0.884-0.374,2.202,0.215,2.774,1.24c0.572,1.024,0.298,2.303-0.577,2.692"/>
			<path style="fill:none;stroke:#733DAD;stroke-linecap:round;stroke-linejoin:round;stroke-miterlimit:10;" d="M338.469,109.792
				c2.478,0.999,5.643-0.367,6.616-2.855c1.467,1.538,3.694,2.389,5.783,1.993c2.088-0.396,3.917-2.132,4.21-4.237"/>
			<g>
				<defs>
					<path id="SVGID_00000111191176370888942890000014120918212030986396_" d="M318.303,154.714
						c5.088,3.448,11.807,4.549,17.844,4.245c1.33-0.067,2.689-0.221,4.041-0.466c-3.176-3.04-4.224-5.403-3.645-9.978
						c0.299-2.362,1.08-4.631,1.995-6.817c0.329-0.786,3.231-5.635,2.915-6.171c-0.09-0.152-0.2-0.294-0.339-0.423
						c-0.723-0.671-1.827-0.635-2.814-0.631c-3.689,0.015-7.159-1.094-10.189-3.184c-1.441-0.994-2.745-2.173-3.989-3.402
						c-0.712-0.703-2.037-3.173-3.109-3.244c-0.102-0.007-0.179,0.047-0.262,0.085c-1.179,5.064-1.209,9.782-4.177,14.349
						c-1.123,1.727-2.458,3.269-4.053,4.41c-0.815,0.805-1.815,1.401-3.179,1.672C311.566,148.961,314.625,152.222,318.303,154.714z
						"/>
				</defs>
				<clipPath id="SVGID_00000129894313039537251110000011264855283738319505_">
					<use xlink:href="#SVGID_00000111191176370888942890000014120918212030986396_"  style="overflow:visible;"/>
				</clipPath>
				<path style="clip-path:url(#SVGID_00000129894313039537251110000011264855283738319505_);" d="M346.547,137.586
					c-3.565,1.413-7.722,1.251-11.165-0.437c-0.567-0.278-1.132-0.6-1.759-0.677c-0.627-0.077-1.347,0.167-1.604,0.744
					c-0.264,0.593,0.063,1.31,0.569,1.716c0.506,0.406,1.152,0.581,1.769,0.784c1.215,0.4,2.382,0.944,3.47,1.618
					c1.275,0.79,2.49,1.778,3.96,2.075c1.827,0.368,3.839-0.52,4.799-2.117"/>
			</g>
			<path style="fill:none;stroke:#000000;stroke-linecap:round;stroke-linejoin:round;stroke-miterlimit:10;" d="M309.087,145.239
				c3.85,5.979,9.404,11.15,16.237,13.123c2.334,0.674,4.965,0.931,7.094-0.238c2.132-1.169,3.312-3.496,4.367-5.687"/>
			<path style="fill:none;stroke:#000000;stroke-linecap:round;stroke-linejoin:round;stroke-miterlimit:10;" d="M337.005,130.177
				c1.246,1.375,2.978,2.3,4.814,2.57"/>
		</g>
		<path style="fill:none;stroke:#000000;stroke-linecap:round;stroke-linejoin:round;stroke-miterlimit:10;" d="M345.105,229.287
			c-0.855,0.53-1.76,0.98-2.698,1.342"/>
		<path style="fill:none;stroke:#000000;stroke-linecap:round;stroke-linejoin:round;stroke-miterlimit:10;" d="M346.814,233.488
			c-0.635,0.42-1.299,0.795-1.986,1.122"/>
		<path style="fill:none;stroke:#000000;stroke-linecap:round;stroke-linejoin:round;stroke-miterlimit:10;" d="M348.971,237.361
			c-0.484,0.049-0.957,0.204-1.377,0.45"/>
		<path style="fill:none;stroke:#000000;stroke-linecap:round;stroke-linejoin:round;stroke-miterlimit:10;" d="M394.626,198.404
			c0.698-0.3,1.395-0.601,2.093-0.901"/>
		<path style="fill:none;stroke:#000000;stroke-linecap:round;stroke-linejoin:round;stroke-miterlimit:10;" d="M397.141,202.231
			c0.374-0.259,0.749-0.517,1.123-0.776"/>
		<path style="fill:none;stroke:#000000;stroke-linecap:round;stroke-linejoin:round;stroke-miterlimit:10;" d="M399.736,205.174
			c0.544-0.4,1.014-0.902,1.378-1.471"/>
		<path style="fill:none;stroke:#000000;stroke-linecap:round;stroke-linejoin:round;stroke-miterlimit:10;" d="M425.619,158.129
			c0.987,2.022,1.419,4.312,1.237,6.555"/>
	</g>
	<g>
		<path d="M69.295,400.673c-3.007-2.11-15.774-9.943-8.91-13.447c6.013-3.07,11.579-3.116,17.188,0.653
			c2.274,1.528,5.293,4.064,7.967,4.754c4.675,1.206,7.338-5.595,9.625-8.643c3.334-4.444,7.584-8.203,12.42-10.94
			c1.975-1.118,4.169-2.093,6.429-1.892c4.536,0.404,7.418,5.568,6.986,10.101c-0.433,4.534-3.213,8.461-5.992,12.068
			c-5.294,6.873-10.886,13.577-16.193,20.337c-0.828,1.054-2.197,1.525-3.5,1.213c-8.685-2.082-16.306-7.535-23.684-12.57
			C71.072,401.925,69.849,401.062,69.295,400.673z"/>
		<path d="M123.875,402.807c2.302-0.545,4.731-0.765,7.082-1.063c2.849-0.361,5.679-0.869,8.475-1.521
			c0.881-0.205,1.792-0.441,2.485-1.022c3.372-2.822,0.094-11.435-0.112-15c-0.333-5.756-0.027-11.549,0.909-17.238
			c0.587-3.569,1.703-7.917,4.811-10.169c3.335-2.417,7.046-0.739,10.626,0.845c2.163,0.957,4.288,2.207,5.669,4.128
			c2.035,2.832,2.112,6.577,2.11,10.065c-0.004,7.005,0.107,13.766-0.398,20.864c-0.484,5.807-0.266,11.574-0.059,17.399
			c0.027,0.753,0.049,1.531-0.225,2.233c-0.771,1.976-3.337,2.39-5.456,2.48c-14.831,0.63-29.665-0.092-44.483-0.207
			c-0.371-0.003-0.763-0.013-1.08-0.207c-0.67-0.41-0.66-1.38-0.492-2.147c0.651-2.969,2.491-5.659,5.023-7.34
			C120.319,403.871,122.057,403.238,123.875,402.807z"/>
		<path style="fill:#B491FF;" d="M125.194,291.469c4.261-4.711,10.644-7.252,16.997-8.023c8.032-0.975,16.202,0.062,23.75,2.623
			c11.393,3.866,23.663,14.772,31.832,23.605c22.793,24.651,47.744,47.282,68.149,73.943c1.364,1.783,2.755,3.632,3.319,5.805
			c1.526,5.878-2.301,11.03-7.657,14.54c-5.181,3.395-11.792,5.254-16.374,4.749c-7.169-0.79-14.042-3.894-19.867-8.063
			c-9.152-6.55-16.177-15.566-23.528-24.089c-7.351-8.523-15.438-16.874-25.746-21.392c-0.729-0.319-1.574-0.618-2.294-0.279
			c-0.904,0.425-2.733,2.432-2.827,3.427c-1.233,12.976,6.193,23.171,4.961,36.147l-41.442-1.454
			c-2.902-10.673-6.656-20.356-7.643-31.479c-1.036-11.679-2.696-23.302-4.971-34.804c-1.137-5.747-2.432-11.511-2.496-17.368
			c-0.063-5.858,1.215-11.92,4.756-16.586C124.456,292.32,124.817,291.886,125.194,291.469z"/>
		<g>
			<defs>
				<path id="SVGID_00000100356651320242459940000008496295005348639395_" d="M125.848,292.063
					c12.742-10.061,24.719-11.211,40.094-5.994c11.393,3.866,23.663,14.772,31.832,23.605
					c22.793,24.651,47.744,47.282,68.149,73.943c1.364,1.783,5.223,6.995,3.319,5.805c-17.824-11.14-5.037,6.09-9.084,10.752
					c-4.061,4.677-16.48,2.29-21.062,1.785c-7.169-0.79-7.926,2.859-13.751-1.31c-9.152-6.55-16.177-15.566-23.528-24.089
					c-7.351-8.523-15.438-16.874-25.746-21.392c-0.729-0.319-1.574-0.618-2.294-0.279c-0.904,0.425-2.733,2.432-2.827,3.427
					c-1.233,12.976,6.193,23.171,4.961,36.147l-41.442-1.454c-4.532-16.668-18.072-48.514-21.46-65.451
					C108.358,304.31,116.227,299.66,125.848,292.063z"/>
			</defs>
			<clipPath id="SVGID_00000181802670925139611540000007321677863608562319_">
				<use xlink:href="#SVGID_00000100356651320242459940000008496295005348639395_"  style="overflow:visible;"/>
			</clipPath>
			<path style="clip-path:url(#SVGID_00000181802670925139611540000007321677863608562319_);" d="M147.156,368.231
				c-0.339,0.408-0.666,0.821-0.977,1.24c-2.994,4.032-4.503,8.946-6.784,13.421c-1.085,2.128-2.528,4.313-4.789,5.083
				c-7.141,2.432-5.666-9.881-1.167-11.825c2.197-0.948,3.97-0.963,5.584-2.778c1.595-1.793,2.491-4.676,3.879-6.694
				c1.929-2.805,4.138-5.287,5.689-8.348c2.07-4.086,3.428-8.516,4.829-12.864c1.198-3.718,0.904-7.704,3.971-10.55
				c0.531-0.493,1.167-0.948,1.891-0.971c1.227-0.039,2.121,1.129,2.69,2.217c2.411,4.613,3.008,9.945,4.814,14.826
				c2.874,7.768,7.759,15.897,6.431,24.535c-1.502-4.7-6.607-7.177-9.449-11.21c-1.339-1.901-2.159-4.132-3.538-6.005
				c-0.213-0.289-0.465-0.586-0.813-0.673c-0.508-0.126-0.997,0.233-1.395,0.572C154.406,361.279,150.25,364.513,147.156,368.231z"
				/>
		</g>
		<path style="fill:#945E38;" d="M274.448,307.2c-6.469-1.333-13.026-2.396-19.641-2.56c-2.507-0.062-4.961-0.571-6.633,1.46
			c-1.787,2.172-3.269,4.672-4.989,6.911c-0.508,0.661-1.046,1.34-1.792,1.713c-0.666,0.333-1.435,0.389-2.18,0.373
			c-2.986-0.066-5.935-1.236-8.154-3.236c0.338-4.567,0.746-9.129,1.224-13.683c0.292-2.78,0.614-5.578,1.459-8.243
			c1.605-5.063,3.475-8.749,6.345-13.217c0.832-1.296,3.154-3.221,4.33-4.215c1.349-1.141,2.796-1.087,4.378-1.524
			c1.684-0.466,3.22-1.252,4.975-1.577c6.936-1.283,14.668,1.84,18.669,7.692c2.575,3.765,3.721,8.348,4.11,12.893
			C277.045,295.803,275.38,301.513,274.448,307.2z"/>
		<path style="fill:#945E38;" d="M235.369,310.806c-0.109-9.206-1.317-18.661,1.449-27.442c2.766-8.781,11.175-16.741,20.239-15.127
			c3.245,0.578,6.172,2.296,8.864,4.198c9.406,6.648,16.889,15.986,21.327,26.615c5.687,13.619,6.309,28.759,6.372,43.517
			c0.068,15.803-0.265,32.538-10.546,44.54c-3.475,4.056-8.699,7.817-13.939,8.854c-6.358,1.259-12.882-0.922-18.775-3.622
			c-8.269-3.788-16.032-8.673-23.04-14.47c-7.867-6.508-7.131-8.451-3.04-17.025C231.706,345.283,235.574,328.055,235.369,310.806z"
			/>
		<path d="M273.955,316.037c5.179-1.039,9.874-3.681,14.472-6.281c4.598-2.6,9.3-5.234,14.483-6.253
			c1.684-0.331,3.852-1.468,4.91-2.82c1.662-2.124-1.6-4.664-3.876-6.11c-3.5-2.223-6.648-1.974-10.769-1.523
			c-4.961,0.543-9.868,1.569-14.631,3.058c-7.144,2.233-13.347,5.836-16.556,12.872C258.494,316.64,268.47,317.137,273.955,316.037z
			"/>
		<path style="fill:#111314;" d="M169.082,293.98c1.732,0.715,3.426,1.586,5.135,2.256c2.914,1.144,17.591,10.263,18.981,10.85
			l48.19,46.151l-3.892,6.672c-12.881-15.94-38.717-34.401-39.125-34.6l-25.919-12.669c-0.71-0.347-1.225-0.998-1.398-1.77
			l-3.164-14.092C167.636,295.647,168.16,294.54,169.082,293.98z"/>
		<path style="fill:#E86F7B;" d="M272.685,339.841c-0.748-2.975-1.556-5.935-2.424-8.877c-1.264-4.287-3.011-8.475-4.184-12.776
			c-0.864-3.168-0.835-6.878-2.782-9.689c-1.976-2.852-5.593-4.965-7.781-7.868c-2.498-3.314-4.517-7.003-5.706-10.991
			c-2.187-7.339-1.31-15.814,3.401-21.851c2.466-3.16,5.518-3.223,8.843-4.779c3.329-1.559,5.197-1.738,9.005-0.628
			c7.323,2.134,13.552,7.259,18.033,13.323c3.028,8.074,8.502,14.996,10.996,23.614c2.552,8.82,3.691,18.255,5.389,27.296
			c1.222,6.506,2.449,13.088,2.089,19.698c-0.463,8.501-4.999,19.37-11.764,24.856c-2.718,2.204-6.401,3.472-9.781,2.564
			c-3.28-0.881-5.778-3.659-7.197-6.745c-1.419-3.086-1.928-6.498-2.497-9.846C275.337,351.33,274.122,345.557,272.685,339.841z"/>
		<path style="fill:#E86F7B;" d="M173.387,302.154c0.118-1.1,0.369-2.035,0.786-2.641c1.001-1.454,2.799-2.093,4.486-2.612
			c5.035-1.549,10.159-2.807,15.338-3.766c1.076-0.199,2.181-0.385,3.258-0.196c1.452,0.256,2.698,1.165,3.827,2.113
			c3.693,3.1,5.917,7.458,9.544,10.494c4.715,3.947,10.557,6.817,16.045,9.504c6.737,3.298,12.826,6.744,19.911,9.49
			c9.15,3.754,18.789,6.25,28.124,9.534c5.528,1.945,11.12,3.921,16.001,7.162c4.882,3.241,9.057,7.933,10.457,13.623
			c1.4,5.69-0.506,12.376-5.43,15.553c-5.397,3.482-4.905,5.167-10.946,2.986c-7.186-2.594-21.643-9.181-28.401-12.744
			c-11.779-6.211-23.399-12.725-34.845-19.531c-10.46-6.22-20.922-15.083-32.011-19.817c-4.478-1.912-12.049-4.836-14.595-9.312
			C173.839,310.066,173.038,305.393,173.387,302.154z"/>
		<path style="fill:#853894;" d="M164.3,238.389l-12.698,12.163c-0.107,0.102-0.158,0.249-0.139,0.395l1.685,12.971
			c0.028,0.216,0.202,0.383,0.419,0.403l12.052,1.085c0.279,0.025,0.517-0.201,0.506-0.481l-1.039-26.218
			C165.069,238.306,164.589,238.112,164.3,238.389z"/>
		<path style="fill:#FFFFFF;" d="M183.486,253.223c-0.1-0.351-0.385-0.615-0.671-0.841c-1.573-1.246-3.525-1.911-5.472-2.393
			c-1.645-0.407-3.32-0.694-5.006-0.865c-0.945-0.095-1.894-0.1-2.843-0.105c-0.456-0.003-0.911-0.004-1.367-0.016
			c-0.347-0.01-1.02,0.199-1.279-0.091c-0.301-0.336-0.201-1.635-0.238-2.084c-0.119-1.45-0.186-2.904-0.2-4.358
			c-0.013-1.322,0.004-2.705-0.596-3.883c-0.719,0.729-1.417,1.48-2.091,2.251c-0.565,0.646-1.195,1.141-1.816,1.732
			c-0.973,0.927-1.974,1.825-2.947,2.753c-1.831,1.746-4.49,3.973-6.219,5.82c-0.498,0.532-0.252,0.743-0.086,1.424
			c0.077,0.318,0.578,0.431,0.621,0.755c0.109,0.843,0.219,1.685,0.328,2.528c0.261,2.006,0.521,4.011,0.782,6.017
			c0.15,1.152,0.299,2.304,0.449,3.455c4.728-1.886,9.457-3.773,14.185-5.659c3.053-1.218,6.106-2.436,9.158-3.654
			C178.983,255.69,183.799,254.315,183.486,253.223z"/>
		<polygon style="fill:#853894;" points="154.555,252.395 184.253,252.913 192.541,314.208 163.188,314.035 		"/>
		<path d="M152.019,250.458c1.234,1.339,2.734,2.046,4.552,1.996c0.176-0.005,0.33,0.118,0.35,0.293l6.896,61.089
			c0.028,0.251-0.216,0.444-0.454,0.358l-5.499-1.986c-0.123-0.044-0.21-0.155-0.223-0.286l-6.21-61.209
			C151.399,250.387,151.797,250.217,152.019,250.458z"/>
		<path style="fill:none;stroke:#000000;stroke-linecap:round;stroke-linejoin:round;stroke-miterlimit:10;" d="M167.591,248.731
			c-3.971-0.037-7.947,0.687-11.65,2.121"/>
		<path style="fill:#B491FF;" d="M151.5,289.194c-3.713,0.71-7.282,2.224-10.356,4.397c-3.149,2.226-5.061,5.28-7.702,7.944
			c-2.9,2.925-6.532,5.138-9.202,8.338c-3.015,3.612-5.068,8.659-7.341,12.768l-32.094,58.03c-0.54,0.976-0.109,2.203,0.926,2.62
			c4.578,1.845,15.574,6.75,17.419,7.195c6.154,1.487,11.99,2.712,17.664,5.203c2.455,1.077,5.336,0.474,7.099-1.546
			c2.705-3.099,4.974-6.296,6.722-10.215c2.374-5.323,5.24-10.422,8.874-14.979c5.351-6.709,9.388-13.612,13.555-21.068
			c2.884-5.161,5.485,6.047,6.78,8.169c3.646,5.975,8.746,11.49,13.328,16.757c19.25,22.129,55.466,49.524,86.906,38.606
			c9.888-3.434,21.494-13.325,22.478-24.547c0.85-9.681-16.662-14.483-24.795-20.102c-4.135-2.856-8.193-5.821-12.293-8.727
			c-2.063-1.462-4.135-2.912-6.232-4.326c-0.609-0.411-5.798-3.288-5.752-3.738c-0.142,1.384-1.537,2.512-2.922,2.36
			c-2.119-0.234-1.976-2.318-2.97-3.628c-1.689-2.226-3.98-4.194-5.952-6.17c-15.305-15.325-30.439-30.515-47.678-43.942
			c-4.513-3.515-9.179-7.051-14.63-8.786C159.507,288.591,155.423,288.443,151.5,289.194z"/>
		<path style="fill:none;stroke:#000000;stroke-linecap:round;stroke-linejoin:round;stroke-miterlimit:10;" d="M172.004,351.784
			c-0.166-0.02,0.085-0.304,0.125-0.142c3.132,12.533,12.614,22.439,22.518,30.733"/>
		<path style="fill:#E86F7B;" d="M251.548,231.423c-1.353-2.085-1.227,1.091-3.219-0.374c-8.225-6.051-20.201-10.136-27.086-0.255
			c-2.548,3.656-3.299,8.368-2.681,12.782c0.618,4.414,2.51,8.564,4.855,12.354c1.582,2.557,3.442,5.04,5.99,6.639
			c4.95,3.105,8.606,0.772,12.669-2.305c0.472-0.358,5.675,10.686,6.063,11.697c1.256,3.275,3.261,6.291-0.327,9.126
			c8.874-2.144,17.437-5.569,25.342-10.135c-2.725-0.696-4.398-3.373-5.687-5.872c-5.164-10.015-8.706-20.82-14.156-30.683
			C252.757,233.391,252.176,232.39,251.548,231.423z"/>
		<path style="fill:#945E38;" d="M267.171,260.901c4.388,0.059,8.655,1.575,12.496,3.698c1.936,1.07,3.784,2.295,5.537,3.643
			c5.178,3.985,9.462,9.005,13.202,14.332c1.908,2.718,3.684,5.527,5.391,8.375c0.853,1.423,1.689,2.857,2.515,4.296
			c0.411,0.716,0.82,1.433,1.228,2.151c0.166,0.293,0.342,0.576,0.499,0.871c0.085,0.16,0.169,0.306,0.212,0.485
			c0.02,0.081,0.001,0.383,0.043,0.432c-0.35-0.404-0.718-0.792-1.105-1.162c-0.32-0.306-0.654-0.602-1.028-0.84
			c-0.526-0.335-1.045-0.562-1.661-0.637c-2.114-0.258-4.271-0.439-6.36-0.025c-1.476,0.293-2.876,0.875-4.308,1.336
			c-1.326,0.426-2.701,0.657-4.029,1.059c-1.121,0.339-2.261,0.814-3.372,1.225c-2.548,0.942-5.029,2.061-7.451,3.291
			c-9.067,4.602-17.709,10.498-27.655,12.616c-4.311-9.266-7.322-19.136-8.915-29.23c-0.994-6.297-0.464-11.589,4.17-16.046
			C252.123,265.442,259.203,260.794,267.171,260.901z"/>
		<path style="fill:none;stroke:#000000;stroke-linecap:round;stroke-linejoin:round;stroke-miterlimit:10;" d="M134.49,301.608
			c-1.712,7.147-3.424,14.295-5.137,21.442"/>
		<path d="M245.221,366.852c-0.079-1.058-0.463-2.299-0.718-2.813c-0.743-1.498-1.922-2.726-2.927-4.062
			c-1.818-2.416-2.84-5.063-3.641-7.946c-0.503-1.81-0.696-1.735-2.402-2.693c-1.593-0.895-3.175-1.806-4.788-2.666
			c0.475,2.642,0.96,5.307,1.894,7.833c1.01,2.731,2.592,4.036,4.622,6.055c0.855,0.851,1.716,1.708,2.391,2.708
			c1.128,1.673,1.789,3.791,3.499,4.862C244.928,369.243,245.322,368.195,245.221,366.852z"/>
		<path style="fill:none;stroke:#000000;stroke-linecap:round;stroke-linejoin:round;stroke-miterlimit:10;" d="M262.123,313.344
			c-4.478-8.612-1.899-13.813-6.561-22.273"/>
		<path d="M260.969,246.98c-0.614-4.769-1.786-9.462-3.419-13.985c-0.474-1.313-1.013-2.653-2.001-3.639
			c-0.988-0.986-2.542-1.535-3.818-0.97c-0.4-1.412-0.244-2.914-0.362-4.377c-0.118-1.463-0.615-3.044-1.874-3.799
			c-0.892-0.535-2.079-0.536-2.972-0.002c-0.893,0.534-1.454,1.58-1.404,2.619c0.024-2.238-0.51-4.474-2.91-4.879
			c-2.116-0.357-4.514,0.387-5.275,2.622c-1.269-1.671-3.499-2.267-5.583-2.513c-3.33-0.394-6.872-0.123-9.746,1.604
			c-0.893,0.536-1.721,1.223-2.252,2.119c-0.842,1.421-0.829,3.142-0.669,4.812c-0.689,0.024-1.379,0.165-2,0.378
			c-1.422,0.489-2.488,1.399-3.089,2.785c-0.335,0.772-0.734,1.593-0.73,2.454c0.004,0.795,0.329,1.556,0.796,2.186
			c0.339,0.457,0.733,0.873,1.208,1.184c-0.335,2.168-0.201,4.256,1.821,5.688c2.203,1.56,5.09,2.239,7.77,2.225
			c4.051-0.021,8.006-0.991,11.747-2.496c1.531,1.34,3.327,1.657,5.118,2.498c3.611,1.694,5.411,6.01,9.57,7.684
			c0.942,0.379,1.934,0.654,2.943,0.807c2.228,0.339,6.353,0.385,7.105-2.378C261.174,248.756,261.081,247.854,260.969,246.98z"/>
		<g>
			<defs>
				<path id="SVGID_00000173122080987441127330000014859651338334338688_" d="M251.548,231.423
					c-1.353-2.085-2.923-4.013-4.914-5.478c-5.694-4.189-12.157,0.419-17.949,4.203c-6.371,4.163-9.99,7.529-8.383,14.581
					c1.362,5.975,4.213,11.605,8.225,16.237c0.822,0.949,1.717,1.876,2.845,2.427c1.764,0.862,3.893,0.683,5.721-0.032
					c1.828-0.714,3.419-1.914,4.984-3.099c0.472-0.358,5.675,10.686,6.063,11.697c1.256,3.275,3.261,6.291-0.327,9.126
					c8.874-2.144,17.437-5.569,25.342-10.135c-2.725-0.696-4.398-3.373-5.687-5.872c-5.164-10.015-8.706-20.82-14.156-30.683
					C252.757,233.391,252.176,232.39,251.548,231.423z"/>
			</defs>
			<clipPath id="SVGID_00000047032943491941430900000000242819441263337918_">
				<use xlink:href="#SVGID_00000173122080987441127330000014859651338334338688_"  style="overflow:visible;"/>
			</clipPath>
			<path style="clip-path:url(#SVGID_00000047032943491941430900000000242819441263337918_);" d="M244.976,261.926
				c-0.046,0.255-0.091,0.51-0.155,0.758c-0.204,0.799-0.608,1.545-1.165,2.153c-0.317,0.346-0.712,0.66-1.178,0.714
				c-0.471,0.054-0.942-0.175-1.277-0.51c-1.051-1.048-0.708-2.552,0.077-3.677c0.696-0.998,1.395-1.999,2.212-2.899
				c0.591-0.651,1.26-1.275,1.574-2.096c0.049-0.129,0.113-0.284,0.25-0.305c0.093-0.015,0.182,0.043,0.253,0.105
				c0.918,0.799,1.045,2.421,0.448,3.43c-0.188,0.318-0.44,0.597-0.618,0.921C245.159,260.951,245.065,261.437,244.976,261.926z"/>
		</g>
		<path style="fill:#E86F7B;" d="M242.097,241.065c2.315-0.231,4.72,1.255,5.458,3.461c0.738,2.207-0.349,4.899-2.453,5.892
			c-2.034,0.96-4.702,0.187-5.973-1.669C237.276,246.043,238.565,241.418,242.097,241.065z"/>
		<path style="fill:none;stroke:#000000;stroke-linecap:round;stroke-linejoin:round;stroke-miterlimit:10;" d="M243.058,243.013
			c-2.176,0.242-3.506,4.111-1.935,5.562"/>
		<path style="fill:none;stroke:#000000;stroke-linecap:round;stroke-linejoin:round;stroke-miterlimit:10;" d="M270.013,333.428
			c1.334-0.001,2.546,0.829,3.399,1.854c0.853,1.025,1.425,2.248,2.112,3.391c1.59,2.647,3.833,4.898,6.474,6.497"/>
		<path style="fill:none;stroke:#000000;stroke-linecap:round;stroke-linejoin:round;stroke-miterlimit:10;" d="M294.295,364.37
			c-1.46,2.473-4.716,3.718-7.454,2.852"/>
		<path style="fill:none;stroke:#000000;stroke-linecap:round;stroke-linejoin:round;stroke-miterlimit:10;" d="M113.519,328.681
			c3.018-8.88,8.486-14.182,11.89-25.438c0.907-2.999,3.381-5.322,5.69-7.439c5.411-4.961,13.16-6.404,20.495-6.694
			c2.533-0.1,5.205-0.125,7.384-1.421"/>
		<path style="fill:none;stroke:#733DAD;stroke-linecap:round;stroke-linejoin:round;stroke-miterlimit:10;" d="M215.961,235.423
			c0.723,0.852,1.633,1.582,2.704,1.898c1.071,0.316,2.317,0.165,3.163-0.564c0.898-0.773,1.207-2.022,1.348-3.199
			c1.035,1.497,3.104,2.295,4.788,1.607c1.684-0.689,2.58-2.984,1.587-4.509"/>
		<path style="fill:none;stroke:#733DAD;stroke-linecap:round;stroke-linejoin:round;stroke-miterlimit:10;" d="M241.451,230.905
			c0.669-0.939,1.894-1.336,3.047-1.348c0.553-0.006,1.131,0.072,1.586,0.386c0.654,0.451,0.922,1.314,0.869,2.107
			c-0.054,0.793-0.377,1.54-0.695,2.268c0.813-0.844,2.4-0.581,3.029,0.408c0.629,0.989,0.312,2.409-0.577,3.173"/>
		<path style="fill:none;stroke:#000000;stroke-linecap:round;stroke-linejoin:round;stroke-miterlimit:10;" d="M228.662,258.794
			c2.363,0.29,4.844-0.87,6.138-2.867"/>
		<path style="fill:none;stroke:#000000;stroke-miterlimit:10;" d="M158.311,351.891c0.043-7.074-0.648-16.835-1.295-27.583"/>
	</g>
	<path style="fill:none;stroke:#000000;stroke-miterlimit:10;" d="M235.533,315.589c-0.119-5.536,0.323-13.156,1-18.652"/>
	<g>
		<g>
			
				<polyline style="fill:none;stroke:#000000;stroke-width:2;stroke-linecap:round;stroke-linejoin:round;stroke-miterlimit:10;" points="
				595.293,420.948 572.186,319.84 540.229,316.329 517.122,420.948 			"/>
			
				<polyline style="fill:none;stroke:#000000;stroke-width:2;stroke-linecap:round;stroke-linejoin:round;stroke-miterlimit:10;" points="
				608.322,420.948 585.215,326.861 553.258,323.351 530.151,420.948 			"/>
			<path style="fill:#B1C785;" d="M566.928,351.667c8.587-1.649,17.054-3.92,25.309-6.803c19.207-6.707,34.682-26.878,40.803-45.724
				c6.431-19.799,8.771-44.882,5.349-65.362c-2.205-13.193-9.755-26.63-22.431-30.897c-9.121-3.07-19.156-0.893-28.241,2.283
				c-12.246,4.282-19.189,10.294-24.537,21.951c-5.732,12.494-9.943,25.718-17.114,37.52c-10.083,16.595-25.855,29.66-44.037,36.479
				c-11.948,4.481-35.28,7.676-30.646,25.288c5.042,19.165,25.246,25.744,43.024,27.577
				C531.901,355.784,549.657,354.984,566.928,351.667z"/>
			<g>
				<path style="fill:#E86F7B;" d="M424.848,348.34c-0.594,3.368-1.237,6.716-2.024,10.004c-3.103,12.958-6.903,31.139-9.717,44.212
					c3.916,2.456,5.158,3.642,9.074,6.098c1.715,1.076,3.641,2.21,5.437,2.048c1.453-0.131,2.462-1.089,3.329-2.046
					c5.029-5.557,8.336-12.745,12.171-19.156c4.244-7.096,8.332-14.314,11.505-22.037c2.023-4.925,3.487-10.113,4.729-15.395
					L424.848,348.34z"/>
				<path style="fill:#222221;" d="M432.734,415.167c0.057-0.152,0.11-0.306,0.16-0.458c1.569-4.766,4.284-9.018,5.515-13.839
					c-8.44-0.742-16.776-2.658-24.693-5.675c-1.282,1.866-3.82,2.254-6.063,2.558c-6.949,0.939-13.797,2.625-20.387,5.019
					c-4.039,1.467-8.907,3.785-10.901,7.858c-2.436,4.978,0.269,5.546,4.142,5.491c6.219-0.089,12.447,0,18.667,0
					C410.204,416.121,421.703,415.167,432.734,415.167z"/>
				<g>
					<g>
						<path style="fill:#697AD1;" d="M500.069,307.398c0.155-0.074,0.311-0.148,0.467-0.22c11.293-5.237,24.089-5.787,36.427-7.443
							c12.338-1.657,25.297-4.933,33.801-14.023c3.268-3.493,5.786-7.93,5.983-12.708c0.28-6.827-4.322-13.161-10.21-16.627
							c-5.888-3.466-12.873-4.522-19.693-4.946c-17.292-1.076-34.577,1.468-51.751,3.758c-16.358,2.182-34.161,4.83-45.447,16.87
							c-5.114,5.455-8.366,12.372-11.136,19.316c-8.971,22.486-13.768,46.535-23.736,68.596c8.054,2.118,16.201,3.882,24.41,5.288
							c4.104,0.703,8.224,1.317,12.355,1.84c3.546,0.449,8.938,2.041,12.431,1.311c5.333-1.114,5.523-10.527,6.701-15.191
							c1.917-7.589,3.474-15.363,6.716-22.532C481.941,320.613,490.083,312.17,500.069,307.398z"/>
					</g>
				</g>
				<path style="fill:#E86F7B;" d="M462.876,353.881c-3.904,11.681-6.892,23.668-8.931,35.814c-0.539,3.212-1.012,6.436-1.418,9.668
					c-0.239,1.905-1.553,5.338-1.336,7.126c0.415,3.422,5.27,5.595,8.199,7.432c1.715,1.076,3.641,2.209,5.437,2.048
					c1.452-0.13,2.462-1.089,3.329-2.046c12.149-13.426,22.711-44.2,26.975-61.383c1.169-4.711-4.137-0.234-4.855-5.035
					c-0.718-4.8-3.744-9.579-8.414-10.903c-4.487-1.272-9.391,0.961-12.518,4.421c-3.127,3.46-4.816,7.955-6.304,12.375
					C462.984,353.558,462.93,353.719,462.876,353.881z"/>
				<path style="fill:#222221;" d="M468.713,421.69c0.086-0.207,0.802-1.244,0.871-1.456c1.505-4.57,3.009-9.141,4.514-13.711
					c-2.076,0.074-4.152,0.149-6.229,0.223c-1.968,0.07-3.74-0.448-5.657-0.912c-2.004-0.486-3.997-1.015-5.978-1.586
					c-0.687-0.198-5.213-2.068-5.617-1.74c-0.236,0.192-0.496,0.367-0.794,0.515c-0.902,0.448-1.908,0.635-2.898,0.817
					c-3.486,0.641-6.972,1.282-10.457,1.922c-4.443,0.817-8.936,1.649-13.054,3.507c-3.006,1.356-12.407,8.572-8.7,12.421H468.713z"
					/>
				<g>
					<path style="fill:#697AD1;" d="M503.404,356.15c3.805-17.322,7.609-34.643,11.414-51.965
						c0.749-3.412,14.976,2.035,17.135,2.898c3.858,1.542,7.181,3.657,11.365,4.666c11.939,2.879,23.682-3.454,31.074-12.945
						c6.379-8.19,9.498-18.617,9.948-28.988c0.118-2.72,0.048-5.522-0.985-8.041c-2.573-6.274-10.02-8.776-16.67-10.101
						c-9.116-1.816-18.378-2.798-27.642-3.548c-17.676-1.431-36.867-1.631-51.388,8.548c-10.365,7.266-14.039,17.116-17.406,28.634
						c-3.943,13.488-8.704,26.4-11.582,40.242c-1.274,6.128-1.263,12.677-1.888,18.893c-0.907,9.026-3.145,17.28-4.917,26.146
						c15.583,3,31.428,4.639,47.296,4.892C500.573,369.037,501.988,362.593,503.404,356.15z"/>
				</g>
				<g>
					<path d="M569.49,139.734c-0.079-0.819-0.379-1.443-1.059-2.126c-0.812-0.816-2.391-1.276-2.553-2.585
						c-0.348-2.82,4.55-4.94,6.542-5.668c6.288-2.297,13.186-3.674,19.676-2.032c4.423,1.119,8.581,3.883,11.035,7.769
						c1.166,1.845,1.536,3.932,2.463,5.84c1.209,2.487,2.621,4.933,3.878,7.411c3.279,6.466,6.565,12.944,10.451,19.065
						c1.435,2.26,2.961,4.488,3.967,6.969c1.006,2.481,1.46,5.287,0.672,7.846c-0.878,2.848-3.168,5.039-5.61,6.747
						c-9.108,6.37-21.651,7.458-31.72,2.751c-2.378-1.111-3.897-2.485-5.496-4.484c-1.636-2.046-3.975-3.379-5.903-5.144
						c-0.376-0.344-0.76-0.698-1.002-1.146c-0.299-0.555-0.356-1.204-0.387-1.833c-0.089-1.802-0.015-3.612,0.221-5.401
						c0.277-2.105,0.778-4.204,0.65-6.324c-0.216-3.593,1.196-6.537-0.81-9.801c-1.644-2.675-4.3-4.718-5.299-7.781
						c-1.048-3.214,0.245-6.244,0.305-9.457C569.514,140.131,569.508,139.927,569.49,139.734z"/>
				</g>
				<g>
					<path style="fill:#E86F7B;" d="M489.047,240.505c7.637-0.024,15.268-0.491,22.862-1.288c6.413-0.673,14.42-0.472,19.893-4.108
						c10.239-6.801,17.294-18.386,18.635-30.598c0.409-3.722,0.295-7.614-1.236-11.032c-2.23-4.979-7.258-8.304-12.561-9.585
						c-5.302-1.281-10.877-0.761-16.24,0.238c-11.056,2.06-21.732,6.14-31.343,11.98c-10.208,6.202-14.975,13.177-18.427,24.506
						c-1.664,5.462-2.471,10.6,1.86,14.737C477.156,239.812,482.784,240.525,489.047,240.505z"/>
				</g>
				<g>
					<g>
						<path style="fill:#522E97;" d="M560.659,178.114c0.046,0.193,0.049,0.395,0.024,0.592c-0.114-0.041-0.232-0.074-0.35-0.104
							L560.659,178.114z"/>
					</g>
					<g>
						<path style="fill:#DEB587;" d="M559.862,207.007c2.718-4.282,4.602-8.967,5.573-13.938c0.832-4.259,6.283-7.844,9.326-10.86
							c0.152-0.151,0.316-0.333,0.293-0.546c-0.022-0.203-0.206-0.344-0.374-0.459c-1.95-1.343-3.901-2.686-5.851-4.029
							c-1.151-0.792-2.317-1.593-3.629-2.074c-2.147-0.787-4.507-0.659-6.789-0.506c-16.928,1.138-34.075,3.162-49.713,9.744
							c-0.48,0.202-0.985,0.43-1.27,0.866c-0.335,0.513-0.281,1.179-0.202,1.787c1.432,11.038,6.681,21.183,12.245,30.823
							c1.054,1.826,2.134,3.66,3.576,5.197c2.07,2.207,3.788,3.916,6.886,3.951c6.391,0.072,12.32-3.881,17.508-7.286
							C552.488,216.364,556.627,212.104,559.862,207.007z"/>
					</g>
				</g>
				<g>
					<path style="fill:#DEB587;" d="M538.24,249.814c1.202,2.842,3.492,5.384,5.76,7.246c6.957,5.711,15.938,8.193,24.631,10.531
						c9.082,2.442,18.249,4.899,27.643,5.362c16.872,0.833,13.007-31.236,13.094-42.979c0.08-10.868-0.594-22.074-5.271-31.884
						c-6.419-13.467-22.074-24.148-37.225-22.831c-6.219,0.541-12.838,6.626-17.368,10.938c-3.344,3.184-5.386,7.504-6.828,11.891
						c-1.528,4.648-2.466,9.489-2.784,14.371c-0.217,3.323-0.148,6.658-0.191,9.988c-0.064,4.956-0.376,9.909-0.933,14.835
						C538.297,241.437,536.535,245.784,538.24,249.814z"/>
				</g>
				<path style="fill:#B1C785;" d="M555.492,267.827c-15.838,7.452-27.22,21.385-30.446,37.273
					c-1.583,7.796-1.586,15.847,0.486,23.553c1.571,5.842,5.148,17.399,11.93,19.019c2.569,0.614,5.259,0.185,7.865-0.246
					c2.874-0.475,5.748-0.95,8.622-1.425c4.563-0.754,9.554-1.59,13.117-4.777c3.363-3.008,5.623-4.449,10.032-6.19
					c13.376-5.284,27.545-11.183,35.677-23.045c3.76-5.485,5.95-11.899,9.475-17.539c2.835-4.536,6.515-8.542,8.939-13.31
					c1.551-3.051,2.574-6.606,2.28-10.056c-0.416-4.873-2.021-5.199-6.39-6.064c-8.2-1.624-16.465-2.977-24.799-3.678
					C586.487,260.016,570.03,260.989,555.492,267.827z"/>
				<g>
					<path style="fill:#E86F7B;" d="M629.966,254.227c-5.283,11.061-16.346,26.679-28.471,19.381
						c-5.333-3.21-6.446-10.423-6.239-16.644c0.367-11.058,3.105-21.883,5.828-32.606c1.555-6.122,3.264-15.767,8.682-19.719
						c6.16-4.494,19.056-4.972,23.644,2.07c2.204,3.383,2.7,7.577,2.898,11.61c0.515,10.435-0.596,21.041-4.191,30.851
						C631.578,250.639,630.854,252.369,629.966,254.227z"/>
				</g>
				<g>
					<path style="fill:#DEB587;" d="M569.583,179.533c-0.081-1.816-0.102-3.646-0.008-5.501c10.324-0.449,20.715,0.909,30.599,3.914
						c8.762,2.664,17.285,4.13,24.24,10.6c13.31,12.381,18.649,32.652,13.164,49.983c-14.431-3.113-29.121-5.023-43.868-5.703
						c3.133,0.145-1.746-12.507-2.352-13.459c-2.747-4.312-7.127-6.369-11.731-8.433c-2.056-0.922-7.747-1.781-9.129-3.299
						c-1.9-2.089-0.627-4.684-0.276-7.627C571.057,193.01,569.889,186.372,569.583,179.533z"/>
				</g>
				<g>
					<path style="fill:#E86F7B;" d="M566.29,162.43c0.289,0.354,0.611,0.678,0.966,0.965c0.823,0.664,2.799,0.951,2.853,2.248
						c0.053,1.265,0.105,2.533,0.133,3.801c0.058,2.615-1.613,4.677-4.247,5.139c-0.5,0.088-1.009,0.106-1.514,0.151
						c0.471-0.07,1.782,1.033,2.131,1.329c0.61,0.517,1.166,1.054,1.842,1.494c1.297,0.844,2.756,1.414,4.261,1.761
						c3.069,0.708,6.294,0.537,9.382,0.048c2.203-0.349,4.588-0.708,6.688-1.492c1.056-0.395,2.07-0.839,2.255-1.797
						c0.203-1.055-0.485-2.881-0.6-3.988c-0.546-5.247-0.236-10.534,0.103-15.783c0.225-3.477,0.473-6.956,0.507-10.441
						c0.025-2.571,0.727-6.681-1.57-8.384c-2.045-1.516-4.584-2.78-7.125-3.151c-2.376-0.347-4.694-0.995-7.14-0.867
						c-2.026,0.106-4.112,0.516-5.747,1.717c-2.08,1.528-2.695-1.464-3.438,1.008c-1.735,5.773-2.828,17.466-1.219,23.327
						C565.099,160.564,565.597,161.58,566.29,162.43z"/>
				</g>
				<g>
					<path d="M588.256,127.512c7.937,3.313,5.564,14.368,4.037,20.435c-0.204,0.809-0.444,1.677-1.096,2.198
						c-1.05,0.839-2.715,0.32-3.553-0.73c-0.839-1.05-1.068-2.447-1.269-3.776c-0.255-1.684-0.776-3.486-0.577-5.182
						c-1,0.625-2.075,1.212-3.206,1.589c-2.532,0.844-3.167-2.394-1.342-3.611c-4.479,2.986-9.675,4.888-15.023,5.5
						c-2.088,0.239-4.702-0.012-5.538-1.94c-0.523-1.205-0.095-2.606,0.496-3.779c1.843-3.657,5.206-6.389,8.926-8.1
						c0.136-0.062,0.272-0.124,0.408-0.183c3.609-1.584,7.541-2.32,11.457-2.802C584.081,126.871,586.297,126.695,588.256,127.512z"
						/>
				</g>
				<g>
					<path style="fill:#E86F7B;" d="M591.714,153.893c-4.384,1.436-6.416-3.566-4.371-6.027c0.857-1.031,2.481-1.6,3.988-1.397
						c1.507,0.203,2.818,1.167,3.218,2.368c0.185,0.554,0.187,1.14,0.098,1.71C594.437,151.893,593.322,153.367,591.714,153.893z"/>
				</g>
				<g>
					<defs>
						<path id="SVGID_00000104690090787346115260000006919526134602979208_" d="M566.29,162.43c0.289,0.354,0.611,0.678,0.966,0.965
							c0.823,0.664,2.799,0.951,2.853,2.248c0.053,1.265,0.105,2.533,0.133,3.801c0.042,1.903-0.295,3.09-2.148,3.942
							c-0.861,0.396-1.798,0.589-2.725,0.78c0.104,0.559,0.451,1.042,0.831,1.465c4.003,4.447,10.383,4.609,15.896,3.736
							c2.26-0.358,4.673-0.768,6.744-1.784c0.464-0.227,0.92-0.48,1.363-0.756c-0.657-0.416-1.282-0.881-1.797-1.46
							c-1.054-1.186-1.427-3.048-1.544-4.593c-0.235-3.103-0.477-6.21-0.211-9.32c0.337-3.938,1.448-7.776,1.739-11.718
							c0.291-3.94-0.706-8.137-2.81-11.488c-2.352-3.747-6.029-5.011-10.368-4.785c-2.026,0.106-4.112,0.516-5.747,1.717
							c-2.08,1.528-3.112,4.083-3.855,6.555c-1.735,5.773-2.411,11.919-0.802,17.78C565.099,160.564,565.597,161.58,566.29,162.43z"
							/>
					</defs>
					<clipPath id="SVGID_00000125563383888267131080000005902367919297626040_">
						<use xlink:href="#SVGID_00000104690090787346115260000006919526134602979208_"  style="overflow:visible;"/>
					</clipPath>
					<g style="clip-path:url(#SVGID_00000125563383888267131080000005902367919297626040_);">
						<path style="fill:#222221;" d="M575.134,164.884c-0.083-0.046-0.197-0.043-0.296-0.034c-2.109,0.197-4.467,0.365-6.416-0.655
							c-1.083-0.567-1.036,1.119-0.95,1.78c0.085,0.654,0.315,1.328,0.828,1.742c0.733,0.591,1.916,0.543,2.707,0.038
							c0.546-0.348,0.844-1.068,1.47-1.232c0.412-0.108,0.842,0.064,1.268,0.07c0.79,0.011,1.554-0.693,1.504-1.481
							c-0.004-0.058-0.012-0.118-0.045-0.166C575.186,164.92,575.162,164.9,575.134,164.884z"/>
					</g>
				</g>
				<path style="fill:none;stroke:#12002C;stroke-linecap:round;stroke-linejoin:round;stroke-miterlimit:10;" d="M563.652,173.388
					c3.895,5.163,11.03,6.968,17.456,6.237c3.8-0.432,7.512-1.626,10.851-3.49"/>
				<path style="fill:none;stroke:#733DAD;stroke-linecap:round;stroke-linejoin:round;stroke-miterlimit:10;" d="M597.938,154.047
					c0.142,4.416,2.217,8.735,5.575,11.606"/>
				<path style="fill:none;stroke:#733DAD;stroke-linecap:round;stroke-linejoin:round;stroke-miterlimit:10;" d="M615.388,175.289
					c0.75,0.933,1.539,1.977,1.504,3.174"/>
				<path style="fill:none;stroke:#12002C;stroke-linecap:round;stroke-linejoin:round;stroke-miterlimit:10;" d="M454.365,354.025
					c-0.795,4.787-1.516,9.587-2.142,14.399"/>
				<path style="fill:none;stroke:#12002C;stroke-linecap:round;stroke-linejoin:round;stroke-miterlimit:10;" d="M546.076,259.341
					c-14.728-4.807-30.728-9.807-46.728-7.807c-15,2-24,14-28,28c-4,16-7,31-12,47c-2,8-4,16-4.489,24.573"/>
				<path style="fill:none;stroke:#12002C;stroke-linecap:round;stroke-linejoin:round;stroke-miterlimit:10;" d="M515.132,304.359
					c0.011-2.112-0.35-4.225-1.06-6.214"/>
				<path style="fill:none;stroke:#733DAD;stroke-linecap:round;stroke-linejoin:round;stroke-miterlimit:10;" d="M600.583,151.228
					c-0.105,1.635,0.199,3.296,0.879,4.787"/>
				<path style="fill:none;stroke:#733DAD;stroke-linecap:round;stroke-linejoin:round;stroke-miterlimit:10;" d="M590.779,137.698
					c0.598,1.083,0.87,2.344,0.771,3.578"/>
				<path style="fill:none;stroke:#12002C;stroke-linecap:round;stroke-linejoin:round;stroke-miterlimit:10;" d="M539.5,224.507
					c1.615-2.415,3.231-4.829,4.846-7.244"/>
				<path style="fill:none;stroke:#12002C;stroke-linecap:round;stroke-linejoin:round;stroke-miterlimit:10;" d="M597.386,234.642
					c0.965-5.334,1.93-10.668,2.895-16.002"/>
			</g>
			<path style="fill:none;stroke:#12002C;stroke-linecap:round;stroke-linejoin:round;stroke-miterlimit:10;" d="M536.742,193.776
				c-7.597,8.978-15.638,18.518-18.647,31.079"/>
			<g>
				<path style="fill:#FFFFFF;" d="M548.38,201.201c0.977-0.011,2.775-0.294,3.602,0.364c0.48,0.382,0.882,1.677,0.099,1.912
					c0.474-0.142,1.041-0.002,1.337,0.395c0.296,0.397,0.238,1.037-0.168,1.321c0.522,0.054,1.052,0.34,1.25,0.827
					c0.329,0.809-0.685,1.417-1.113,1.974c-0.819,1.067-1.598,2.168-2.355,3.28c-1.478,2.169-2.851,4.41-4.114,6.711
					c-1.927,3.514-3.203,7.371-4.669,11.101c-1.534,3.905-3.54,3.838-7.679,3.811c-4.419-0.028-8.835-0.614-13.109-1.738
					c-1.429-0.376-2.937-0.747-4.299-1.33c-1.032-0.441-1.41-1.071-2.298-1.686c-1.94-1.342-4.751-1.484-7.021-1.507
					c-2.864-0.029-5.816,0.192-8.508-0.786c-2.635-0.957-4.801-3.041-6.041-5.555c-1.644-3.33-1.565-6.686-1.497-10.229
					c0.08-4.151-0.441-8.416-1.046-12.516c-0.272-1.847-0.257-3.704-0.414-5.55c-0.16-1.877-0.52-3.758-0.778-5.624
					c-0.065-0.468-0.124-0.97,0.091-1.39c0.215-0.42,0.824-0.666,1.174-0.35c0.004-0.402,0.305-0.781,0.695-0.877
					c0.39-0.096,0.833,0.101,1.022,0.455c-0.114-0.411,0.213-0.843,0.614-0.99c0.401-0.147,0.845-0.081,1.263,0.005
					c5.167,1.059,9.327,4.728,13.582,7.844c2.149,1.574,4.389,3.042,6.34,4.856c1.665,1.548,3.136,3.384,3.961,5.521
					c0.238,0.616,0.173,0.783,0.795,0.846c0.556,0.057,1.309-0.215,1.866-0.299c1.302-0.197,2.607-0.371,3.916-0.521
					c2.617-0.301,5.244-0.508,7.875-0.621c3.123-0.134,6.252-0.135,9.375-0.005c1.633,0.069,3.263,0.18,4.892,0.314
					C547.48,201.204,547.93,201.206,548.38,201.201z"/>
				<path style="fill:#853894;" d="M519.868,203.975c0,0-15.033,51.546-15.285,52.737l34.576,3.755l15.539-53.611L519.868,203.975z"
					/>
				<path style="fill:#853894;" d="M519.022,203.488c0,0-15.133,51.867-15.41,53.093l-31.273-19.554l16.148-52.313L519.022,203.488z
					"/>
				<path d="M507.007,256.054c1.424-4.098,2.336-8.357,3.414-12.553c1.318-5.128,2.608-10.263,3.937-15.388
					c1.133-4.156,2.271-8.307,3.464-12.446c0.587-2.036,1.166-4.074,1.719-6.12c0.236-0.873,0.563-1.687,0.785-2.563
					c0.248-0.979,0.496-1.959,0.745-2.938c0.022-0.087,0.044-0.176,0.029-0.264c-0.011-0.062-0.039-0.12-0.073-0.173
					c-0.161-0.257-0.427-0.427-0.689-0.58c-1.07-0.627-2.219-1.12-3.411-1.465c-0.481-0.139-0.689,0.04-0.836,0.468
					c-0.178,0.518-0.359,1.039-0.543,1.558c-0.417,1.169-0.804,2.349-1.145,3.543c-0.633,2.215-1.21,4.445-1.863,6.654
					c-3.168,10.717-5.728,21.039-8.7,31.813c-0.826,2.994-1.601,6.073-2.627,8.982c-0.082,0.231-0.164,0.467-0.179,0.712
					c-0.08,1.317,1.257,2.01,2.364,2.246c0.803,0.171,2.466,0.362,3.069-0.34c0.223-0.26,0.346-0.59,0.46-0.913
					C506.953,256.209,506.98,256.132,507.007,256.054z"/>
			</g>
			<path style="fill:#E86F7B;" d="M592.032,276.403c4.674,0.063,9.4-0.107,14.264-0.552c2.972-0.272,6.02-0.651,8.644-2.072
				c5.172-2.802,7.569-9.814,5.195-15.196c-1.912-4.333-6.319-7.169-10.916-8.309c-4.597-1.14-9.418-0.819-14.133-0.373
				c-7.604,0.72-15.2,1.713-22.715,3.083c-6.366,1.16-11.606,3.045-18.297,1.826c-2.791-0.509-6.819-5.587-8.953-8.202
				c-0.541-0.663-1.156-1.267-1.839-1.779c-0.692-0.52-1.482-0.937-2.094-1.557c-1.127-1.142-0.955-2.862-2.827-3.219
				c-0.591-0.113-1.443,0.361-1.644,0.972c-1.312,3.994,3.522,5.491,5.084,8.238c-1.652,0.195-3.338-0.568-4.771-1.223
				c-3.756-1.718-7.302-3.858-10.559-6.371c-0.566-0.436-1.153-0.898-1.871-1.01c-0.718-0.112-1.603,0.261-1.826,0.99
				c-0.231,0.756,0.32,1.455,0.87,1.952c3.314,2.998,8.046,4.423,10.522,8.178c-1.039,0.587-1.687,0.066-2.542-0.414
				c-3.139-1.763-6.099-3.828-8.834-6.16c-0.713-0.608-5.453-5.153-5.668-1.595c-0.042,0.698,0.356,1.307,0.769,1.832
				c2.418,3.07,5.845,5.114,9.202,7.098c1.194,0.705,3.287,1.359,3.715,2.81c-1.377-0.112-2.637-1.293-3.74-2.033
				c-1.611-1.081-3.252-2.117-4.905-3.135c-0.162-0.13-0.329-0.253-0.49-0.385c-1.148-0.938-3.091-3.32-4.526-1.271
				c-0.927,1.323,1.114,4.267,1.902,3.485c-0.271,0.268-0.432,0.649-0.363,1.135c0.534,3.752,3.498,5.739,6.61,7.212
				c0.102,0.048,0.207,0.087,0.309,0.134c0.572,0.302,1.121,0.58,1.6,0.831c6.119,3.191,12.537,5.803,19.202,7.612
				c6.379,1.73,12.396,3.8,18.998,4.891C574.49,275.329,583.169,276.284,592.032,276.403z"/>
			<path style="fill:none;stroke:#12002C;stroke-linecap:round;stroke-linejoin:round;stroke-miterlimit:10;" d="M595.792,250.089
				c3.406-0.038,6.818,0.524,10.031,1.654"/>
			<path style="fill:none;stroke:#12002C;stroke-linecap:round;stroke-linejoin:round;stroke-miterlimit:10;" d="M538.182,279.801
				c-3.337,3.895-6.538,7.948-8.987,12.455c-7.711,14.19-6.257,33.194,0.008,47.641"/>
			<path style="fill:none;stroke:#12002C;stroke-linecap:round;stroke-linejoin:round;stroke-miterlimit:10;" d="M532.781,295.65
				c-0.572,1.662-1.266,3.222-1.91,4.831"/>
			<path style="fill:none;stroke:#12002C;stroke-linecap:round;stroke-linejoin:round;stroke-miterlimit:10;" d="M530.172,310.818
				c-0.542,4.371,0.095,8.883,1.826,12.933"/>
			<path style="fill:none;stroke:#12002C;stroke-linecap:round;stroke-linejoin:round;stroke-miterlimit:10;" d="M602.353,330.006
				c3.108-2.935,6.216-5.87,9.324-8.806"/>
			<path d="M566.214,157.242c-0.007,0.048-0.012,0.096-0.016,0.144c-0.083,1.311,1.712,2.356,2.728,2.8
				c1.351,0.591,2.909,0.742,4.327,0.302c1.538-0.478,3-2.267,2.065-3.579c-0.556-0.782-1.648-0.907-2.606-0.962
				c-1.216-0.07-2.431-0.14-3.647-0.21c-1.067-0.061-2.209-0.423-2.647,0.794C566.335,156.763,566.251,156.998,566.214,157.242z"/>
			<path style="fill:none;stroke:#12002C;stroke-linecap:round;stroke-linejoin:round;stroke-miterlimit:10;" d="M541.394,277.163
				c1.227-1.204,2.562-2.299,3.984-3.266"/>
			<path style="fill:none;stroke:#12002C;stroke-linecap:round;stroke-linejoin:round;stroke-miterlimit:10;" d="M609.606,272.505
				c1.839,0.3,3.802-0.293,5.168-1.56"/>
			<path style="fill:none;stroke:#733DAD;stroke-linecap:round;stroke-linejoin:round;stroke-miterlimit:10;" d="M437.404,405.527
				c-8.547,1.601-16.658,5.472-23.278,11.11"/>
		</g>
		<g>
			<path style="fill:#B491FF;" d="M538.18,139.236c4.48-5.178,6.614-9.992,6.98-14.402c1.639-19.762-32.222-31.423-49.535-31.423
				c-14.991,0-32.8,4.012-43.29,15.601c-10.146,11.209-6.625,29.099,6.26,37.172c7.241,4.536,16.288,4.831,24.829,4.571
				c7.664-0.234,18.212,0.101,28.309-0.997c1.602,3.096,3.723,5.82,6.632,7.868c6.386,4.498,14.881,4.475,22.613,3.361
				c-6.453-1.916-13.395-4.172-17.271-9.675c-0.73-1.036-1.309-2.141-1.779-3.291C528.526,146.379,534.331,143.684,538.18,139.236z"
				/>
			<path style="fill:none;stroke:#000000;stroke-linecap:round;stroke-linejoin:round;stroke-miterlimit:10;" d="M460.17,123.022
				c4.082,3.238,10.929,1.937,13.538-2.573c0.462-0.798,0.763-1.906,0.119-2.567c-0.737-0.757-2.178-0.134-2.47,0.881
				c-0.291,1.016,0.245,2.097,0.959,2.876c1.572,1.715,4.108,2.48,6.366,1.92c2.258-0.56,4.143-2.422,4.731-4.673
				c0.089-0.341,0.149-0.711,0.024-1.041c-0.502-1.322-2.611-0.131-2.856,1.262c-0.47,2.667,1.65,5.378,4.288,5.989
				c2.638,0.611,5.487-0.621,7.247-2.68c1.145-1.339,1.445-4.02-0.288-4.333c-2.235,1.861-1.079,5.963,1.597,7.101
				c2.676,1.138,5.882-0.117,7.893-2.217c0.759-0.793,1.432-1.815,1.304-2.906c-0.127-1.09-1.447-2.016-2.36-1.406
				c-0.483,0.322-0.683,0.935-0.741,1.512c-0.313,3.133,2.927,5.843,6.072,5.697c3.146-0.146,5.857-2.498,7.292-5.301
				c0.45-0.878,0.733-2.104-0.031-2.728c-0.623-0.509-1.588-0.255-2.213,0.252c-1.954,1.587-1.445,5.029,0.588,6.515
				c2.032,1.486,4.926,1.279,7.176,0.148c2.25-1.13,4-3.031,5.696-4.891"/>
		</g>
		<path style="fill:none;stroke:#12002C;stroke-linecap:round;stroke-linejoin:round;stroke-miterlimit:10;" d="M475.735,402.67
			c4.846-8.659,8.96-17.728,12.283-27.077"/>
	</g>
	<g>
		<path style="fill:#E36D78;" d="M342.763,430.457h-71.28v-24.389h71.28c6.735,0,12.194,5.459,12.194,12.194l0,0
			C354.958,424.997,349.498,430.457,342.763,430.457z"/>
		<path style="fill:#F2E9DF;" d="M340.253,427.905h-68.895l-0.17-19.982h68.896c5.819,0,10.537,4.717,10.537,10.537l0,0
			C350.62,424.279,346.072,427.905,340.253,427.905z"/>
		<line style="fill:none;stroke:#FFFFFF;stroke-miterlimit:10;" x1="271.286" y1="411.411" x2="347.962" y2="411.609"/>
		<line style="fill:none;stroke:#FFFFFF;stroke-miterlimit:10;" x1="271.286" y1="415.852" x2="349.837" y2="415.975"/>
		<line style="fill:none;stroke:#FFFFFF;stroke-miterlimit:10;" x1="271.286" y1="420.293" x2="350.231" y2="420.49"/>
		<line style="fill:none;stroke:#FFFFFF;stroke-miterlimit:10;" x1="271.286" y1="424.733" x2="347.962" y2="424.931"/>
		<path d="M347.271,410.275l-0.112,15.645c2.048-1.77,3.461-3.655,3.461-6.574v-1.771
			C350.62,414.655,349.319,412.045,347.271,410.275z"/>
		<path style="fill:#2775D9;" d="M343.62,404.078v-6.561h4.243v-0.923c0-0.664-0.539-1.203-1.203-1.203h-84.88
			c-2.98,0-5.395,2.415-5.395,5.395c0,2.98,2.415,5.395,5.395,5.395h84.88c0.664,0,1.203-0.539,1.203-1.203v-0.9H343.62z"/>
		<path style="fill:#F2E9DF;" d="M347.6,404.057h-83.206c-1.807,0-3.271-1.465-3.271-3.271l0,0c0-1.807,1.465-3.272,3.271-3.272
			H347.6V404.057z"/>
		<path style="fill:#61BA89;" d="M341.325,395.472h-63.373c-1.486,0-2.69-1.204-2.69-2.69v-9.98c0-1.486,1.204-2.69,2.69-2.69
			h63.373c1.486,0,2.69,1.204,2.69,2.69v9.98C344.015,394.267,342.81,395.472,341.325,395.472z"/>
		<path d="M334.983,380.056h-65.839c-1.359,0-2.46-1.101-2.46-2.46V375.2c0-1.358,1.101-2.46,2.46-2.46h65.839
			c1.358,0,2.46,1.101,2.46,2.46v2.397C337.443,378.955,336.342,380.056,334.983,380.056z"/>
		<path d="M334.879,388.686h-49.035c-0.806,0-1.459-0.653-1.459-1.459l0,0c0-0.806,0.653-1.459,1.459-1.459h49.035
			c0.806,0,1.459,0.653,1.459,1.459l0,0C336.338,388.033,335.685,388.686,334.879,388.686z"/>
		<line style="fill:none;stroke:#FFFFFF;stroke-miterlimit:10;" x1="261.813" y1="399.175" x2="347.205" y2="399.372"/>
		<line style="fill:none;stroke:#FFFFFF;stroke-miterlimit:10;" x1="261.813" y1="402.135" x2="347.205" y2="402.333"/>
		<polygon points="345.001,406.323 271.319,405.849 271.215,415.804 		"/>
		<polygon points="340.832,395.427 339.795,397.708 276.282,397.431 276.952,395.22 		"/>
	</g>
	<g>
		<path d="M623.086,283.347c0.096-0.049,0.197-0.088,0.303-0.111c0.538-0.118,1.091,0.181,1.464,0.586
			c1.501,1.632,1.069,5.341,0.759,7.345c-0.133,0.856-0.336,1.721-0.794,2.456c-0.374,0.6-0.902,1.09-1.291,1.68
			c-0.586,0.891-0.823,1.959-1.049,3c-0.657,3.023-1.314,6.047-1.971,9.07c-0.747-0.499-1.113-1.424-1.181-2.32
			c-0.068-0.896,0.117-1.789,0.249-2.677c0.314-2.115,0.462-4.503,0.003-6.61c-0.425-1.952-0.865-3.807-0.478-5.856
			c0.45-2.387,1.759-4.379,3.3-6C622.604,283.695,622.826,283.481,623.086,283.347z"/>
		<g>
			<path style="fill:#697AD1;" d="M626.416,384.403h46.09l-4.337,34.586c-0.181,1.644-1.574,2.885-3.227,2.877l-30.696-0.149
				c-1.389-0.007-2.565-1.029-2.764-2.404L626.416,384.403z"/>
			<path d="M672.507,384.403c0,2.7-10.318,4.888-23.045,4.888c-12.728,0-23.045-2.189-23.045-4.888c0-2.7,10.318-4.888,23.045-4.888
				C662.189,379.515,672.507,381.704,672.507,384.403z"/>
		</g>
		<g>
			<path d="M639.682,320.882c-1.02-5.93-3.11-11.641-4.041-17.586c-1.339-8.548-0.199-17.469,3.246-25.405
				c1.516,0.883,2.292,2.681,2.474,4.426c0.182,1.745-0.126,3.499-0.262,5.248c-0.615,7.901,2.268,15.588,4.146,23.287
				c2.126,8.711,2.989,17.706,2.892,26.672c-0.04,3.714-0.307,7.629-2.354,10.733c-0.484,0.734-0.846,1.522-1.072,2.366
				C639.263,342.709,641.245,329.964,639.682,320.882z"/>
			<path d="M655.905,302.629c1.696-8.886,1.558-18.382,5.82-26.361c0.339-0.634,0.8-1.322,1.513-1.416
				c1.16-0.152,1.813,1.3,1.942,2.463c0.688,6.205-2.31,12.134-4.061,18.126c-3.37,11.531-2.408,23.805-5.73,35.366
				c-3.667-2.602-1.787-6.281-1.589-9.955C654.142,314.52,654.707,308.906,655.905,302.629z"/>
			<path d="M670.159,311.656c2.37-6.82,4.778-13.627,7.185-20.433c0.379-1.071,1.008-2.336,2.144-2.368
				c0.802-0.023,1.48,0.642,1.797,1.379c0.513,1.194,0.327,2.559,0.115,3.841c-2.466,14.91-7.105,29.342-11.974,43.612
				c-0.912,2.672-1.559,7.061-3.673,9.109c-1.178,1.141-4.036,1.988-5.24,0.313c-1.818-2.529,2.981-9.552,3.722-12.051
				c1.063-3.585,1.197-7.405,2.09-11.048C667.352,319.819,668.744,315.729,670.159,311.656z"/>
			<path style="fill:#61BA89;" d="M645.63,384.441c-0.205,1.213-0.272,2.328,0.068,2.979c1.003,1.919,4.905,1.097,7.169,0.999
				c2.511-8.156,3.523-18.265,4.642-24.765c2.22-12.895,3.281-25.989,3.148-39.073c-0.065-6.428-1.665-12.285-3.693-18.348
				c-1.457-4.358-2.914-8.716-4.371-13.074c-0.184-0.549-0.377-1.115-0.76-1.55c-0.875-0.993-2.522-0.965-3.636-0.249
				c-1.113,0.716-1.789,1.94-2.294,3.164c-4.02,9.735,0.211,20.668,1.265,31.148c0.716,7.121-0.093,14.392-2.356,21.181
				c-0.936,2.81-2.134,5.622-2.101,8.583c0.03,2.724,1.101,5.31,1.92,7.908c1.663,5.274,2.312,10.862,1.935,16.379
				C646.492,380.79,645.922,382.715,645.63,384.441z"/>
			<path style="fill:#61BA89;" d="M656.08,388.232c0.946-0.07,1.891-0.157,2.836-0.256c2.645-6.204,5.027-12.525,5.662-19.235
				c0.604-6.39-1.806-13.319-0.135-19.543c0.618-2.3,1.895-4.439,2.08-6.814c0.157-2.017-0.49-3.996-0.906-5.976
				c-2.278-10.853,2.375-21.803,4.093-32.758c0.471-3.008,0.642-6.359-1.162-8.811c-5.721,7.802-10.888,18.257-10.919,28.059
				c-0.034,10.758-3.455,21.241-5.529,31.781c-1.199,6.093-2.034,12.319-1.805,18.541c0.205,5.558,1.998,9.974,3.338,15.158
				C654.45,388.335,655.267,388.291,656.08,388.232z"/>
			<path style="fill:#61BA89;" d="M625.361,306.456c-0.817-2.046-1.521-4.135-2.339-6.181c-0.299-0.748-0.943-1.587-1.091-2.354
				c-0.075-0.388-0.065-0.789-0.137-1.178c-0.204-1.101-1.04-1.997-1.29-3.089c-0.11-0.483-0.101-0.985-0.12-1.48
				c-0.055-1.391-0.575-2.81-0.422-4.178c0.009-0.082-0.058-0.519-0.051-0.529c-0.659,0.854-1.06,3.036-1.097,3.364
				c-0.107,0.956-0.081,1.92-0.092,2.88c-0.022,1.879,0.1,3.779-0.277,5.633c-0.504,2.479-0.771,4.191-0.407,6.688
				c0.4,2.741,0.925,5.411,1.914,8.009c3.284,8.624,10.53,15.678,11.994,24.79c0.461,2.87,0.313,5.801,0.532,8.699
				c0.466,6.167,2.153,12.703,3.451,18.725c0.406,1.885,3.593,21.378,3.973,21.426c1.11,0.141,3.04,0.739,4.056-0.087
				c0.993-0.808,0.771-2.894,0.718-4.02c-0.256-5.469-1.911-10.747-2.391-16.189c-0.231-2.618,0.158-5.146,0.163-7.766
				c0.005-2.948-0.255-5.893-0.673-8.809c-0.288-2.005-0.899-3.767-1.047-5.788c-0.113-1.531-0.678-2.993-0.911-4.511
				c-0.199-1.298-0.152-2.628-0.409-3.916c-0.279-1.397-0.907-2.696-1.436-4.019c-0.767-1.92-1.333-3.917-2.146-5.819
				c-1.413-3.305-3.222-6.33-5.043-9.439C628.723,313.797,626.875,310.246,625.361,306.456z"/>
			<path style="fill:none;stroke:#000000;stroke-linecap:round;stroke-linejoin:round;stroke-miterlimit:10;" d="M652.541,388.26
				c2.722-6.863,5.49-13.998,5.08-21.37c-0.341-6.111-2.867-12.149-1.858-18.186c0.517-3.092,1.934-5.949,2.946-8.917
				c3.347-9.812,1.168-23.407-0.933-33.329"/>
		</g>
	</g>
</g>
</svg>
